<?xml version="1.0" encoding="UTF-8" standalone="no"?>
<svg
   xmlns:dc="http://purl.org/dc/elements/1.1/"
   xmlns:cc="http://creativecommons.org/ns#"
   xmlns:rdf="http://www.w3.org/1999/02/22-rdf-syntax-ns#"
   xmlns:svg="http://www.w3.org/2000/svg"
   xmlns="http://www.w3.org/2000/svg"
   xmlns:sodipodi="http://sodipodi.sourceforge.net/DTD/sodipodi-0.dtd"
   xmlns:inkscape="http://www.inkscape.org/namespaces/inkscape"
   viewBox="0 0 2560 1440"
   id="svg2"
   version="1.1"
   inkscape:version="0.91 r13725"
   sodipodi:docname="nodejs-getting-started.svg"
   width="2560"
   height="1440"
   inkscape:export-filename="C:\github\samkristoff\website\media\projects\nodejs\export\nodejs-getting-started-1920.png"
   inkscape:export-xdpi="67.5"
   inkscape:export-ydpi="67.5">
  <metadata
     id="metadata36">
    <rdf:RDF>
      <cc:Work
         rdf:about="">
        <dc:format>image/svg+xml</dc:format>
        <dc:type
           rdf:resource="http://purl.org/dc/dcmitype/StillImage" />
        <dc:title></dc:title>
      </cc:Work>
    </rdf:RDF>
  </metadata>
  <defs
     id="defs34">
    <clipPath
       clipPathUnits="userSpaceOnUse"
       id="clipPath20">
      <path
         d="M 0,0 H 2352.62 V 1744 H 0 Z"
         id="path18-4" />
    </clipPath>
  </defs>
  <sodipodi:namedview
     pagecolor="#515151"
     bordercolor="#666666"
     borderopacity="1"
     objecttolerance="10"
     gridtolerance="10"
     guidetolerance="10"
     inkscape:pageopacity="1"
     inkscape:pageshadow="2"
     inkscape:window-width="1920"
     inkscape:window-height="1017"
     id="namedview32"
     showgrid="false"
     inkscape:zoom="0.23177389"
     inkscape:cx="-30.057685"
     inkscape:cy="909.46537"
     inkscape:window-x="1912"
     inkscape:window-y="-8"
     inkscape:window-maximized="1"
     inkscape:current-layer="svg2" />
  <text
     xml:space="preserve"
     style="font-style:normal;font-weight:normal;font-size:125px;line-height:125%;font-family:sans-serif;text-align:center;letter-spacing:0px;word-spacing:0px;text-anchor:middle;fill:#e2e2e2;fill-opacity:1;stroke:none;stroke-width:1px;stroke-linecap:butt;stroke-linejoin:miter;stroke-opacity:1"
     x="1761.8856"
     y="471.68207"
     id="text4321"
     sodipodi:linespacing="125%"><tspan
       sodipodi:role="line"
       id="tspan4323"
       x="1761.8856"
       y="471.68207"
       style="font-style:normal;font-variant:normal;font-weight:bold;font-stretch:normal;font-family:sans-serif;-inkscape-font-specification:'sans-serif Bold';text-align:center;text-anchor:middle;fill:#e2e2e2;fill-opacity:1">Getting Started With</tspan><tspan
       sodipodi:role="line"
       x="1761.8856"
       y="627.93207"
       style="font-style:normal;font-variant:normal;font-weight:bold;font-stretch:normal;font-family:sans-serif;-inkscape-font-specification:'sans-serif Bold';text-align:center;text-anchor:middle;fill:#e2e2e2;fill-opacity:1"
       id="tspan4343">Node.js</tspan><tspan
       sodipodi:role="line"
       x="1761.8856"
       y="784.18207"
       id="tspan4327"
       style="font-style:normal;font-variant:normal;font-weight:bold;font-stretch:normal;font-size:90px;font-family:sans-serif;-inkscape-font-specification:'sans-serif Bold';text-align:center;text-anchor:middle;fill:#e2e2e2;fill-opacity:1" /></text>
  <flowRoot
     xml:space="preserve"
     id="flowRoot4331"
     style="fill:black;stroke:none;stroke-opacity:1;stroke-width:1px;stroke-linejoin:miter;stroke-linecap:butt;fill-opacity:1;font-family:sans-serif;font-style:normal;font-weight:normal;font-size:125px;line-height:125%;letter-spacing:0px;word-spacing:0px"><flowRegion
       id="flowRegion4333"><rect
         id="rect4335"
         width="976.27118"
         height="222.71187"
         x="1375.9323"
         y="277.62714" /></flowRegion><flowPara
       id="flowPara4337" /></flowRoot>  <text
     xml:space="preserve"
     style="font-style:normal;font-weight:normal;font-size:125px;line-height:125%;font-family:sans-serif;letter-spacing:0px;word-spacing:0px;fill:#e2e2e2;fill-opacity:1;stroke:none;stroke-width:1px;stroke-linecap:butt;stroke-linejoin:miter;stroke-opacity:1"
     x="1723.7288"
     y="1348.4745"
     id="text4339"
     sodipodi:linespacing="125%"><tspan
       sodipodi:role="line"
       id="tspan4341"
       x="1723.7288"
       y="1348.4745"
       style="font-style:normal;font-variant:normal;font-weight:bold;font-stretch:normal;font-size:90px;font-family:'Segoe UI';-inkscape-font-specification:'Segoe UI Bold';fill:#e2e2e2;fill-opacity:1">Sam Kristoff</tspan></text>
  <g
     transform="matrix(0.65780843,0,0,-0.65780843,-2197.6234,1227.9669)"
     id="g12">
    <g
       id="g14"
       transform="matrix(0.80385697,0,0,0.80385697,3235.7549,48.650453)">
      <g
         clip-path="url(#clipPath20)"
         id="g16">
        <path
           inkscape:connector-curvature="0"
           id="path24-8"
           style="fill:#ffffff;fill-opacity:1;fill-rule:evenodd;stroke:none"
           d="m 591.555,884.34 c 0,5.422 -2.856,10.402 -7.532,13.086 l -124.687,71.758 c -2.109,1.242 -4.473,1.886 -6.863,1.984 -0.215,0 -1.118,0 -1.289,0 -2.383,-0.098 -4.746,-0.742 -6.887,-1.984 L 319.609,897.426 c -4.648,-2.684 -7.539,-7.664 -7.539,-13.086 l 0.274,-193.219 c 0,-2.691 1.394,-5.191 3.761,-6.512 2.313,-1.379 5.172,-1.379 7.481,0 l 74.102,42.442 c 4.683,2.777 7.539,7.687 7.539,13.058 l 0,90.278 c 0,5.379 2.847,10.359 7.515,13.035 l 31.555,18.176 c 2.351,1.355 4.922,2.019 7.551,2.019 2.566,0 5.203,-0.664 7.488,-2.019 l 31.543,-18.176 c 4.668,-2.676 7.527,-7.656 7.527,-13.035 l 0,-90.278 c 0,-5.371 2.895,-10.308 7.551,-13.058 l 74.082,-42.442 c 2.324,-1.379 5.227,-1.379 7.527,0 2.297,1.321 3.743,3.821 3.743,6.512 l 0.246,193.219" />
        <path
           inkscape:connector-curvature="0"
           id="path26-0"
           style="fill:#ffffff;fill-opacity:1;fill-rule:evenodd;stroke:none"
           d="m 1245.78,783.73 c 0,-1.343 -0.72,-2.589 -1.88,-3.257 l -42.83,-24.688 c -1.16,-0.668 -2.6,-0.668 -3.76,0 l -42.83,24.688 c -1.17,0.668 -1.88,1.914 -1.88,3.257 l 0,49.454 c 0,1.343 0.71,2.586 1.88,3.261 l 42.82,24.735 c 1.17,0.675 2.61,0.675 3.77,0 l 42.83,-24.735 c 1.16,-0.675 1.88,-1.918 1.88,-3.261 z m 11.57,366.23 c -2.33,1.29 -5.18,1.27 -7.48,-0.09 -2.3,-1.35 -3.72,-3.82 -3.72,-6.49 l 0,-191.353 c 0,-1.882 -1,-3.625 -2.63,-4.566 -1.63,-0.941 -3.64,-0.941 -5.27,0 l -31.23,17.992 c -4.66,2.688 -10.39,2.68 -15.05,-0.004 l -124.74,-71.988 c -4.66,-2.691 -7.53,-7.66 -7.53,-13.039 l 0,-144.004 c 0,-5.387 2.87,-10.359 7.53,-13.047 l 124.73,-72.043 c 4.66,-2.687 10.4,-2.687 15.07,0 l 124.75,72.043 c 4.66,2.688 7.53,7.66 7.53,13.047 l 0,358.962 c 0,5.46 -2.96,10.5 -7.73,13.16 l -74.23,41.42" />
        <path
           inkscape:connector-curvature="0"
           id="path28-8"
           style="fill:#ffffff;fill-opacity:1;fill-rule:evenodd;stroke:none"
           d="m 1703.62,834.477 c 4.64,2.695 7.49,7.656 7.49,13.023 l 0,34.898 c 0,5.364 -2.85,10.332 -7.5,13.028 l -123.93,71.957 c -4.67,2.711 -10.42,2.715 -15.1,0.019 l -124.69,-71.988 c -4.66,-2.691 -7.53,-7.66 -7.53,-13.043 l 0,-143.961 c 0,-5.422 2.91,-10.41 7.61,-13.09 l 123.92,-70.609 c 4.57,-2.609 10.17,-2.633 14.77,-0.082 l 74.95,41.66 c 2.38,1.32 3.86,3.82 3.87,6.531 0.02,2.719 -1.43,5.231 -3.78,6.578 l -125.48,72.028 c -2.35,1.344 -3.79,3.836 -3.79,6.531 l 0,45.117 c 0,2.692 1.44,5.184 3.77,6.524 l 39.06,22.515 c 2.32,1.344 5.19,1.344 7.51,0 l 39.08,-22.515 c 2.33,-1.34 3.77,-3.832 3.77,-6.524 l 0,-35.496 c 0,-2.695 1.44,-5.187 3.77,-6.527 2.34,-1.348 5.21,-1.34 7.54,0.011 l 74.69,43.415" />
        <path
           inkscape:connector-curvature="0"
           id="path30-8"
           style="fill:#72c42d;fill-opacity:1;fill-rule:evenodd;stroke:none"
           d="m 818.367,968.16 c 4.66,2.688 10.403,2.688 15.063,0 l 124.718,-71.972 c 4.664,-2.692 7.536,-7.665 7.536,-13.047 l 0,-144.063 c 0,-5.379 -2.872,-10.348 -7.532,-13.047 L 833.434,654 c -4.664,-2.691 -10.407,-2.691 -15.071,0 l -124.691,72.031 c -4.656,2.699 -7.527,7.668 -7.527,13.047 l 0,144.067 c 0,5.378 2.871,10.351 7.531,13.043 l 124.691,71.972" />
        <path
           inkscape:connector-curvature="0"
           id="path32"
           style="fill:#72c42d;fill-opacity:1;fill-rule:nonzero;stroke:none"
           d="m 1945.78,651.949 c -4.3,0 -8.57,1.121 -12.33,3.301 l -39.27,23.23 c -5.86,3.282 -3,4.442 -1.07,5.122 7.83,2.707 9.41,3.339 17.76,8.07 0.87,0.488 2.02,0.308 2.92,-0.223 l 30.16,-17.91 c 1.1,-0.609 2.64,-0.609 3.65,0 l 117.6,67.879 c 1.1,0.633 1.8,1.883 1.8,3.187 l 0,135.723 c 0,1.328 -0.7,2.567 -1.82,3.242 l -117.56,67.821 c -1.09,0.636 -2.53,0.636 -3.63,0 l -117.53,-67.84 c -1.14,-0.656 -1.86,-1.934 -1.86,-3.223 l 0,-135.723 c 0,-1.304 0.72,-2.527 1.85,-3.144 l 32.22,-18.609 c 17.48,-8.743 28.19,1.546 28.19,11.886 l 0,134.008 c 0,1.895 1.52,3.387 3.41,3.387 l 14.92,0 c 1.86,0 3.4,-1.492 3.4,-3.387 l 0,-134.008 c 0,-23.328 -12.7,-36.707 -34.82,-36.707 -6.8,0 -12.15,0 -27.09,7.36 l -30.84,17.757 c -7.62,4.403 -12.33,12.641 -12.33,21.457 l 0,135.723 c 0,8.817 4.71,17.051 12.33,21.434 l 117.61,67.961 c 7.44,4.207 17.33,4.207 24.71,0 l 117.6,-67.961 c 7.62,-4.403 12.35,-12.617 12.35,-21.434 l 0,-135.723 c 0,-8.816 -4.73,-17.027 -12.35,-21.457 l -117.6,-67.898 c -3.76,-2.18 -8.02,-3.301 -12.38,-3.301" />
        <path
           inkscape:connector-curvature="0"
           id="path34"
           style="fill:#72c42d;fill-opacity:1;fill-rule:nonzero;stroke:none"
           d="m 1982.11,745.453 c -51.47,0 -62.25,23.625 -62.25,43.438 0,1.886 1.52,3.39 3.4,3.39 l 15.21,0 c 1.7,0 3.11,-1.222 3.38,-2.883 2.29,-15.476 9.14,-23.289 40.26,-23.289 24.77,0 35.32,5.606 35.32,18.75 0,7.579 -2.99,13.203 -41.49,16.973 -32.18,3.184 -52.08,10.293 -52.08,36.035 0,23.731 20,37.879 53.53,37.879 37.68,0 56.32,-13.074 58.68,-41.133 0.09,-0.965 -0.25,-1.894 -0.89,-2.617 -0.65,-0.672 -1.55,-1.082 -2.49,-1.082 l -15.27,0 c -1.58,0 -2.98,1.121 -3.3,2.656 -3.66,16.289 -12.57,21.492 -36.73,21.492 -27.05,0 -30.19,-9.421 -30.19,-16.484 0,-8.555 3.71,-11.043 40.23,-15.879 36.14,-4.773 53.31,-11.543 53.31,-36.941 0,-25.625 -21.36,-40.305 -58.63,-40.305" />
        <path
           inkscape:connector-curvature="0"
           id="path36"
           style="fill:#72c42d;fill-opacity:1;fill-rule:evenodd;stroke:none"
           d="m 1570.29,841.219 c 0.9,0.519 2,0.519 2.89,0 l 23.94,-13.809 c 0.89,-0.515 1.44,-1.469 1.44,-2.504 l 0,-27.636 c 0,-1.036 -0.55,-1.989 -1.44,-2.504 l -23.94,-13.809 c -0.89,-0.519 -1.99,-0.519 -2.89,0 l -23.91,13.809 c -0.9,0.515 -1.45,1.468 -1.45,2.504 l 0,27.636 c 0,1.035 0.55,1.989 1.45,2.504 l 23.91,13.809" />
        <path
           inkscape:connector-curvature="0"
           id="path38"
           style="fill:#72c42d;fill-opacity:1;fill-rule:nonzero;stroke:none"
           d="m 2143.13,934.512 3.96,0 c 3.23,0 3.84,2.273 3.84,3.593 0,3.481 -2.4,3.481 -3.72,3.481 l -4.08,0 z m -4.8,11.152 8.76,0 c 3,0 8.88,0 8.88,-6.719 0,-4.679 -3,-5.636 -4.81,-6.234 3.49,-0.242 3.72,-2.52 4.2,-5.758 0.25,-2.035 0.61,-5.519 1.32,-6.715 l -5.39,0 c -0.13,1.196 -0.97,7.676 -0.97,8.032 -0.35,1.441 -0.84,2.16 -2.63,2.16 l -4.44,0 0,-10.192 -4.92,0 z m -10.49,-12.652 c 0,-10.555 8.52,-19.071 18.95,-19.071 10.55,0 19.07,8.696 19.07,19.071 0,10.55 -8.63,18.945 -19.07,18.945 -10.32,0 -18.95,-8.269 -18.95,-18.945 z m 41.67,-0.063 c 0,-12.472 -10.19,-22.668 -22.66,-22.668 -12.36,0 -22.67,10.074 -22.67,22.668 0,12.832 10.56,22.672 22.67,22.672 12.23,0 22.66,-9.84 22.66,-22.672" />
      </g>
    </g>
  </g>
  <text
     xml:space="preserve"
     style="font-style:normal;font-weight:normal;font-size:12.5px;line-height:125%;font-family:sans-serif;letter-spacing:0px;word-spacing:0px;fill:#000000;fill-opacity:1;stroke:none;stroke-width:1px;stroke-linecap:butt;stroke-linejoin:miter;stroke-opacity:1"
     x="2075.2986"
     y="568.46094"
     id="text4289"
     sodipodi:linespacing="125%"><tspan
       sodipodi:role="line"
       id="tspan4291"
       x="2075.2986"
       y="568.46094">.</tspan></text>
</svg>
