<?xml version="1.0" encoding="UTF-8" standalone="no"?>
<svg
   xmlns:dc="http://purl.org/dc/elements/1.1/"
   xmlns:cc="http://creativecommons.org/ns#"
   xmlns:rdf="http://www.w3.org/1999/02/22-rdf-syntax-ns#"
   xmlns:svg="http://www.w3.org/2000/svg"
   xmlns="http://www.w3.org/2000/svg"
   xmlns:sodipodi="http://sodipodi.sourceforge.net/DTD/sodipodi-0.dtd"
   xmlns:inkscape="http://www.inkscape.org/namespaces/inkscape"
   viewBox="0 0 2560 1440"
   id="svg2"
   version="1.1"
   inkscape:version="0.91 r13725"
   sodipodi:docname="linux-systemd-unit-config.svg"
   width="2560"
   height="1440"
   inkscape:export-filename="C:\github\samkristoff\website\media\projects\linux\export\linux-startup-script-using-systemd.png"
   inkscape:export-xdpi="16.17"
   inkscape:export-ydpi="16.17">
  <metadata
     id="metadata36">
    <rdf:RDF>
      <cc:Work
         rdf:about="">
        <dc:format>image/svg+xml</dc:format>
        <dc:type
           rdf:resource="http://purl.org/dc/dcmitype/StillImage" />
        <dc:title />
      </cc:Work>
    </rdf:RDF>
  </metadata>
  <defs
     id="defs34">
    <clipPath
       clipPathUnits="userSpaceOnUse"
       id="clipPath20">
      <path
         d="M 0,0 H 2352.62 V 1744 H 0 Z"
         id="path18-4" />
    </clipPath>
  </defs>
  <sodipodi:namedview
     pagecolor="#515151"
     bordercolor="#666666"
     borderopacity="1"
     objecttolerance="10"
     gridtolerance="10"
     guidetolerance="10"
     inkscape:pageopacity="1"
     inkscape:pageshadow="2"
     inkscape:window-width="1920"
     inkscape:window-height="1017"
     id="namedview32"
     showgrid="false"
     inkscape:zoom="0.23177389"
     inkscape:cx="-552.3622"
     inkscape:cy="909.46537"
     inkscape:window-x="1912"
     inkscape:window-y="-8"
     inkscape:window-maximized="1"
     inkscape:current-layer="svg2" />
  <text
     xml:space="preserve"
     style="font-style:normal;font-weight:normal;font-size:125px;line-height:125%;font-family:sans-serif;text-align:center;letter-spacing:0px;word-spacing:0px;text-anchor:middle;fill:#e2e2e2;fill-opacity:1;stroke:none;stroke-width:1px;stroke-linecap:butt;stroke-linejoin:miter;stroke-opacity:1"
     x="1761.8856"
     y="471.68207"
     id="text4321"
     sodipodi:linespacing="125%"><tspan
       sodipodi:role="line"
       id="tspan4323"
       x="1783.2479"
       y="471.68207"
       style="font-style:normal;font-variant:normal;font-weight:bold;font-stretch:normal;font-family:sans-serif;-inkscape-font-specification:'sans-serif Bold';text-align:center;text-anchor:middle;fill:#e2e2e2;fill-opacity:1">Startup Script Using </tspan><tspan
       sodipodi:role="line"
       x="1761.8856"
       y="627.93207"
       style="font-style:normal;font-variant:normal;font-weight:bold;font-stretch:normal;font-family:sans-serif;-inkscape-font-specification:'sans-serif Bold';text-align:center;text-anchor:middle;fill:#e2e2e2;fill-opacity:1"
       id="tspan4343">SystemD</tspan><tspan
       sodipodi:role="line"
       x="1761.8856"
       y="784.18207"
       id="tspan4327"
       style="font-style:normal;font-variant:normal;font-weight:bold;font-stretch:normal;font-size:90px;font-family:sans-serif;-inkscape-font-specification:'sans-serif Bold';text-align:center;text-anchor:middle;fill:#e2e2e2;fill-opacity:1" /></text>
  <flowRoot
     xml:space="preserve"
     id="flowRoot4331"
     style="fill:black;stroke:none;stroke-opacity:1;stroke-width:1px;stroke-linejoin:miter;stroke-linecap:butt;fill-opacity:1;font-family:sans-serif;font-style:normal;font-weight:normal;font-size:125px;line-height:125%;letter-spacing:0px;word-spacing:0px"><flowRegion
       id="flowRegion4333"><rect
         id="rect4335"
         width="976.27118"
         height="222.71187"
         x="1375.9323"
         y="277.62714" /></flowRegion><flowPara
       id="flowPara4337" /></flowRoot>  <text
     xml:space="preserve"
     style="font-style:normal;font-weight:normal;font-size:125px;line-height:125%;font-family:sans-serif;letter-spacing:0px;word-spacing:0px;fill:#e2e2e2;fill-opacity:1;stroke:none;stroke-width:1px;stroke-linecap:butt;stroke-linejoin:miter;stroke-opacity:1"
     x="1723.7288"
     y="1348.4745"
     id="text4339"
     sodipodi:linespacing="125%"><tspan
       sodipodi:role="line"
       id="tspan4341"
       x="1723.7288"
       y="1348.4745"
       style="font-style:normal;font-variant:normal;font-weight:bold;font-stretch:normal;font-size:90px;font-family:'Segoe UI';-inkscape-font-specification:'Segoe UI Bold';fill:#e2e2e2;fill-opacity:1">Sam Kristoff</tspan></text>
  <text
     xml:space="preserve"
     style="font-style:normal;font-weight:normal;font-size:12.5px;line-height:125%;font-family:sans-serif;letter-spacing:0px;word-spacing:0px;fill:#000000;fill-opacity:1;stroke:none;stroke-width:1px;stroke-linecap:butt;stroke-linejoin:miter;stroke-opacity:1"
     x="2075.2986"
     y="568.46094"
     id="text4289"
     sodipodi:linespacing="125%"><tspan
       sodipodi:role="line"
       id="tspan4291"
       x="2075.2986"
       y="568.46094">.</tspan></text>
  <g
     id="g4194"
     transform="translate(38.45848,-24.362758)">
    <g
       style="fill:#e2e2e2;fill-opacity:1"
       transform="matrix(1.6016949,0,0,1.6016949,123.00066,339.8249)"
       id="g3">
      <g
         style="fill:#e2e2e2;fill-opacity:1"
         id="g5">
        <path
           inkscape:connector-curvature="0"
           id="path7"
           d="m 456.698,412.044 c -13.352,-5.479 -24.353,-14.107 -23.555,-30.631 0.777,-16.502 -11.799,-27.438 -11.799,-27.438 0,0 11.001,-36.131 0.777,-65.963 C 411.918,258.136 378.16,210.271 352.253,174.161 326.39,138.03 348.349,96.398 324.815,43.032 301.238,-10.334 240.02,-7.206 207.039,15.572 c -33.003,22.736 -22.8,79.251 -21.247,105.999 1.575,26.661 0.712,45.665 -2.33,52.568 -3.106,6.903 -24.332,32.227 -38.482,53.409 -14.129,21.183 -24.332,65.165 -34.578,83.22 -10.203,18.055 -3.128,34.535 -3.128,34.535 0,0 -7.075,2.33 -12.576,14.172 -5.501,11.734 -16.48,17.235 -36.109,21.118 -19.629,3.926 -19.629,16.545 -14.927,30.674 4.724,14.107 0.022,22.002 -5.479,40.014 -5.501,18.012 21.981,23.555 48.664,26.64 26.705,3.171 56.537,20.449 81.689,23.577 25.087,3.149 32.96,-17.257 32.96,-17.257 0,0 28.258,-6.32 58.069,-7.054 29.854,-0.798 58.069,6.277 58.069,6.277 0,0 5.501,12.554 15.704,18.033 10.225,5.501 32.205,6.299 46.334,-8.585 14.15,-14.949 51.835,-33.758 73.017,-45.557 21.244,-11.82 17.361,-29.853 4.009,-35.311 z M 272.958,65.812 c 13.46,0 24.332,13.352 24.332,29.811 0,11.691 -5.457,21.765 -13.417,26.661 -2.028,-0.884 -4.163,-1.79 -6.428,-2.761 4.789,-2.373 8.197,-8.477 8.197,-15.596 0,-9.275 -5.738,-16.804 -12.835,-16.804 -7.01,0 -12.77,7.55 -12.77,16.804 0,3.43 0.82,6.73 2.222,9.426 -4.185,-1.661 -8.046,-3.214 -11.066,-4.357 -1.639,-4.012 -2.567,-8.542 -2.567,-13.374 0,-16.458 10.872,-29.81 24.332,-29.81 z m -1.747,62.857 c 6.73,2.33 14.215,6.709 13.439,11.044 -0.798,4.357 -4.336,4.357 -13.439,9.923 -9.124,5.522 -28.883,17.774 -35.204,18.572 -6.363,0.798 -9.901,-2.761 -16.631,-7.097 -6.73,-4.357 -19.392,-14.69 -16.2,-20.19 0,0 9.858,-7.55 14.194,-11.497 4.357,-3.969 15.445,-13.439 22.175,-12.209 6.73,1.143 24.936,9.081 31.666,11.454 z M 210.532,70.536 c 10.613,0 19.241,12.64 19.241,28.236 0,2.869 -0.28,5.522 -0.82,8.089 -2.588,0.884 -5.22,2.308 -7.765,4.465 -1.294,1.057 -2.438,2.049 -3.538,3.041 1.683,-3.149 2.351,-7.636 1.596,-12.36 -1.424,-8.52 -7.097,-14.733 -12.727,-13.848 -5.608,0.971 -8.995,8.628 -7.571,17.192 1.445,8.564 7.097,14.776 12.705,13.848 0.324,-0.065 0.626,-0.151 0.949,-0.259 -2.739,2.632 -5.263,4.897 -7.83,6.816 -7.765,-3.602 -13.46,-14.323 -13.46,-27.007 10e-4,-15.594 8.607,-28.213 19.22,-28.213 z m -20.729,396.708 c -2.502,11.26 -15.682,19.435 -15.682,19.435 -11.95,3.753 -45.169,-10.656 -60.226,-16.976 -15.035,-6.234 -53.323,-8.175 -58.349,-13.741 -4.983,-5.695 2.502,-18.227 4.422,-30.113 1.855,-11.972 -3.753,-19.457 -1.898,-27.632 1.898,-8.132 26.359,-8.132 35.743,-13.762 9.426,-5.673 11.303,-21.981 18.831,-26.359 7.528,-4.422 21.312,11.26 26.963,20.082 5.63,8.736 26.963,46.399 35.743,55.804 8.801,9.405 16.955,22.002 14.453,33.262 z M 328.654,357.837 c -2.265,11.066 -2.265,51.058 -2.265,51.058 0,0 -24.332,33.715 -62.059,39.237 -37.684,5.522 -56.537,1.553 -56.537,1.553 l -21.183,-24.31 c 0,0 16.458,-2.394 14.129,-18.874 -2.373,-16.48 -50.238,-39.259 -58.888,-59.686 -8.607,-20.384 -1.553,-54.962 9.448,-72.241 10.98,-17.257 18.012,-54.919 29.013,-67.517 11.001,-12.511 19.608,-39.216 15.682,-51.015 0,0 23.555,28.279 40.014,23.598 16.48,-4.724 53.431,-32.227 58.888,-27.481 5.479,4.724 52.59,108.328 57.27,141.31 4.724,32.96 -3.149,58.069 -3.149,58.069 0,0 -18.034,-4.702 -20.363,6.299 z m 120.494,73.966 c -7.334,6.73 -48.146,23.21 -60.377,36.066 -12.166,12.748 -28.064,23.124 -37.792,20.104 -9.793,-3.085 -18.314,-16.48 -14.043,-36.023 4.249,-19.478 7.938,-40.833 7.334,-53.043 -0.604,-12.209 -3.085,-28.711 0,-31.148 3.042,-2.373 7.895,-1.186 7.895,-1.186 0,0 -2.394,23.145 11.605,29.293 13.999,6.04 34.147,-2.438 40.251,-8.585 6.126,-6.061 10.397,-15.207 10.397,-15.207 0,0 6.083,3.085 5.479,12.813 -0.604,9.75 4.249,23.814 13.439,28.668 9.125,4.81 23.146,11.561 15.812,18.248 z"
           style="fill:#e2e2e2;fill-opacity:1" />
      </g>
      <g
         style="fill:#e2e2e2;fill-opacity:1"
         id="g9" />
      <g
         style="fill:#e2e2e2;fill-opacity:1"
         id="g11" />
      <g
         style="fill:#e2e2e2;fill-opacity:1"
         id="g13" />
      <g
         style="fill:#e2e2e2;fill-opacity:1"
         id="g15" />
      <g
         style="fill:#e2e2e2;fill-opacity:1"
         id="g17" />
      <g
         style="fill:#e2e2e2;fill-opacity:1"
         id="g19" />
      <g
         style="fill:#e2e2e2;fill-opacity:1"
         id="g21" />
      <g
         style="fill:#e2e2e2;fill-opacity:1"
         id="g23" />
      <g
         style="fill:#e2e2e2;fill-opacity:1"
         id="g25" />
      <g
         style="fill:#e2e2e2;fill-opacity:1"
         id="g27" />
      <g
         style="fill:#e2e2e2;fill-opacity:1"
         id="g29" />
      <g
         style="fill:#e2e2e2;fill-opacity:1"
         id="g31" />
      <g
         style="fill:#e2e2e2;fill-opacity:1"
         id="g33" />
      <g
         style="fill:#e2e2e2;fill-opacity:1"
         id="g35" />
      <g
         style="fill:#e2e2e2;fill-opacity:1"
         id="g37" />
    </g>
    <g
       transform="translate(0,934.86099)"
       id="g39" />
    <g
       transform="translate(0,934.86099)"
       id="g41" />
    <g
       transform="translate(0,934.86099)"
       id="g43" />
    <g
       transform="translate(0,934.86099)"
       id="g45" />
    <g
       transform="translate(0,934.86099)"
       id="g47" />
    <g
       transform="translate(0,934.86099)"
       id="g49" />
    <g
       transform="translate(0,934.86099)"
       id="g51" />
    <g
       transform="translate(0,934.86099)"
       id="g53" />
    <g
       transform="translate(0,934.86099)"
       id="g55" />
    <g
       transform="translate(0,934.86099)"
       id="g57" />
    <g
       transform="translate(0,934.86099)"
       id="g59" />
    <g
       transform="translate(0,934.86099)"
       id="g61" />
    <g
       transform="translate(0,934.86099)"
       id="g63" />
    <g
       transform="translate(0,934.86099)"
       id="g65" />
    <g
       transform="translate(0,934.86099)"
       id="g67" />
  </g>
</svg>
