<?xml version="1.0" encoding="UTF-8" standalone="no"?>
<!-- Generator: Adobe Illustrator 16.0.0, SVG Export Plug-In . SVG Version: 6.00 Build 0)  -->

<svg
   xmlns:dc="http://purl.org/dc/elements/1.1/"
   xmlns:cc="http://creativecommons.org/ns#"
   xmlns:rdf="http://www.w3.org/1999/02/22-rdf-syntax-ns#"
   xmlns:svg="http://www.w3.org/2000/svg"
   xmlns="http://www.w3.org/2000/svg"
   xmlns:sodipodi="http://sodipodi.sourceforge.net/DTD/sodipodi-0.dtd"
   xmlns:inkscape="http://www.inkscape.org/namespaces/inkscape"
   version="1.1"
   id="Capa_1"
   x="0px"
   y="0px"
   width="640"
   height="480"
   viewBox="0 0 640 480"
   xml:space="preserve"
   inkscape:version="0.91 r13725"
   sodipodi:docname="automation.svg"><metadata
     id="metadata49"><rdf:RDF><cc:Work
         rdf:about=""><dc:format>image/svg+xml</dc:format><dc:type
           rdf:resource="http://purl.org/dc/dcmitype/StillImage" /><dc:title></dc:title></cc:Work></rdf:RDF></metadata><defs
     id="defs47" /><sodipodi:namedview
     pagecolor="#ffffff"
     bordercolor="#666666"
     borderopacity="1"
     objecttolerance="10"
     gridtolerance="10"
     guidetolerance="10"
     inkscape:pageopacity="0"
     inkscape:pageshadow="2"
     inkscape:window-width="1920"
     inkscape:window-height="1017"
     id="namedview45"
     showgrid="false"
     inkscape:zoom="0.91439562"
     inkscape:cx="-89.728522"
     inkscape:cy="209.20118"
     inkscape:window-x="1912"
     inkscape:window-y="-8"
     inkscape:window-maximized="1"
     inkscape:current-layer="Capa_1" /><g
     id="g3"
     transform="matrix(9.4941765,0,0,9.4941765,104.49235,35.892007)"
     style="fill:#919191;fill-opacity:1;stroke:#e2e2e2;stroke-opacity:1;stroke-width:0.73729407;stroke-miterlimit:4;stroke-dasharray:none"><g
       id="g5"
       style="fill:#919191;fill-opacity:1;stroke:#e2e2e2;stroke-opacity:1;stroke-width:0.73729407;stroke-miterlimit:4;stroke-dasharray:none"><path
         d="m 32.097,24.868 -3.785,-0.946 c 1.566,-1.391 2.832,-3.305 3.676,-5.416 1.254,-0.227 2.43,-1.223 2.619,-3.511 0.182,-2.211 -0.545,-3.123 -1.479,-3.488 C 33.103,10.8 33.013,10.144 32.976,9.524 32.554,2.539 29.043,-0.533 23.367,0.075 22.623,0.155 21.895,0.201 21.156,0.081 18.192,-0.406 15.098,1.87 13.591,4.243 11.64,7.315 12.385,11.44 12.38,11.575 c -0.855,0.405 -1.492,1.334 -1.32,3.42 0.183,2.214 1.289,3.219 2.497,3.486 0.862,2.118 2.152,4.051 3.733,5.454 l -3.754,0.936 C 8.412,26.154 4.822,30.736 4.822,36.017 l 0,6.32 c 0,1.794 1.484,3.288 3.278,3.288 l 29.44,0 c 1.794,0 3.265,-1.494 3.265,-3.287 l 0,-6.32 C 40.804,30.735 37.22,26.151 32.097,24.868 Z m -21.049,18.757 -2.949,0 c -0.691,0 -1.279,-0.596 -1.279,-1.287 l 0,-6.32 c 0,-3.24 1.656,-6.162 4.228,-7.886 l 0,15.493 z m 3.31,-30.975 c 0,-0.294 0.044,-0.583 0.13,-0.865 0.232,-0.752 0.53,-1.394 0.825,-1.916 0.511,-0.903 1.339,-1.585 2.323,-1.913 0.03,-0.01 0.06,-0.02 0.089,-0.03 0.346,-0.119 0.727,0.013 0.926,0.319 0.199,0.306 0.164,0.709 -0.085,0.976 -0.047,0.05 -0.094,0.1 -0.142,0.148 -0.15,0.155 -0.184,0.389 -0.084,0.58 0.1,0.191 0.312,0.296 0.524,0.261 2.074,-0.342 5.708,-1.252 8.441,-3.609 0.725,-0.624 1.812,-0.562 2.461,0.141 0.615,0.668 1.013,1.497 1.149,2.395 0.153,1.003 0.234,2.166 0.234,3.513 0,5.233 -3.745,11.554 -8.397,11.554 -4.649,0 -8.394,-6.32 -8.394,-11.554 z m 9.197,30.975 -1.446,0 -6.883,-17.1 4.299,-1.082 c 1.012,0.486 2.096,0.759 3.229,0.759 1.174,0 2.29,-0.279 3.325,-0.776 l 4.372,1.108 -6.896,17.091 z m 15.251,-1.287 c 0,0.691 -0.576,1.287 -1.267,1.287 l -2.886,0 0,-15.45 c 2.535,1.729 4.152,4.628 4.152,7.842 l 0,6.321 z"
         id="path7"
         inkscape:connector-curvature="0"
         style="fill:#919191;fill-opacity:1;stroke:#e2e2e2;stroke-opacity:1;stroke-width:0.73729407;stroke-miterlimit:4;stroke-dasharray:none" /><circle
         cx="22.799999"
         cy="34.084999"
         r="1.142"
         id="circle9"
         style="fill:#919191;fill-opacity:1;stroke:#e2e2e2;stroke-opacity:1;stroke-width:0.73729407;stroke-miterlimit:4;stroke-dasharray:none" /><circle
         cx="22.799999"
         cy="38.159"
         r="1.142"
         id="circle11"
         style="fill:#919191;fill-opacity:1;stroke:#e2e2e2;stroke-opacity:1;stroke-width:0.73729407;stroke-miterlimit:4;stroke-dasharray:none" /><path
         d="M 26.197,27.144 24.14,27.74 c -0.032,0.008 -0.063,0.016 -0.096,0.021 -0.333,-0.292 -0.765,-0.486 -1.24,-0.486 -0.475,0 -0.907,0.193 -1.24,0.486 C 21.532,27.756 21.5,27.748 21.469,27.74 l -2.05,-0.597 c -0.614,-0.177 -1.197,0.286 -1.197,0.925 l 0,2.332 c 0,0.641 0.584,1.102 1.2,0.924 L 21.563,30.7 c 0.333,0.296 0.765,0.48 1.242,0.494 0.478,-0.014 0.911,-0.198 1.245,-0.494 l 2.146,0.624 c 0.614,0.178 1.208,-0.283 1.208,-0.924 l 0,-2.332 c -0.001,-0.64 -0.592,-1.101 -1.207,-0.924 z"
         id="path13"
         inkscape:connector-curvature="0"
         style="fill:#919191;fill-opacity:1;stroke:#e2e2e2;stroke-opacity:1;stroke-width:0.73729407;stroke-miterlimit:4;stroke-dasharray:none" /></g></g><g
     id="g15"
     transform="translate(0,434.375)" /><g
     id="g17"
     transform="translate(0,434.375)" /><g
     id="g19"
     transform="translate(0,434.375)" /><g
     id="g21"
     transform="translate(0,434.375)" /><g
     id="g23"
     transform="translate(0,434.375)" /><g
     id="g25"
     transform="translate(0,434.375)" /><g
     id="g27"
     transform="translate(0,434.375)" /><g
     id="g29"
     transform="translate(0,434.375)" /><g
     id="g31"
     transform="translate(0,434.375)" /><g
     id="g33"
     transform="translate(0,434.375)" /><g
     id="g35"
     transform="translate(0,434.375)" /><g
     id="g37"
     transform="translate(0,434.375)" /><g
     id="g39"
     transform="translate(0,434.375)" /><g
     id="g41"
     transform="translate(0,434.375)" /><g
     id="g43"
     transform="translate(0,434.375)" /></svg>