<?xml version="1.0" encoding="UTF-8" standalone="no"?>
<!-- Generator: Adobe Illustrator 16.0.0, SVG Export Plug-In . SVG Version: 6.00 Build 0)  -->

<svg
   xmlns:dc="http://purl.org/dc/elements/1.1/"
   xmlns:cc="http://creativecommons.org/ns#"
   xmlns:rdf="http://www.w3.org/1999/02/22-rdf-syntax-ns#"
   xmlns:svg="http://www.w3.org/2000/svg"
   xmlns="http://www.w3.org/2000/svg"
   xmlns:sodipodi="http://sodipodi.sourceforge.net/DTD/sodipodi-0.dtd"
   xmlns:inkscape="http://www.inkscape.org/namespaces/inkscape"
   version="1.1"
   id="Capa_1"
   x="0px"
   y="0px"
   width="512px"
   height="512px"
   viewBox="0 0 512 512"
   style="enable-background:new 0 0 512 512;"
   xml:space="preserve"
   inkscape:version="0.91 r13725"
   sodipodi:docname="github.svg"><metadata
     id="metadata41"><rdf:RDF><cc:Work
         rdf:about=""><dc:format>image/svg+xml</dc:format><dc:type
           rdf:resource="http://purl.org/dc/dcmitype/StillImage" /><dc:title></dc:title></cc:Work></rdf:RDF></metadata><defs
     id="defs39" /><sodipodi:namedview
     pagecolor="#ffffff"
     bordercolor="#666666"
     borderopacity="1"
     objecttolerance="10"
     gridtolerance="10"
     guidetolerance="10"
     inkscape:pageopacity="0"
     inkscape:pageshadow="2"
     inkscape:window-width="1920"
     inkscape:window-height="1017"
     id="namedview37"
     showgrid="false"
     inkscape:zoom="0.4609375"
     inkscape:cx="256"
     inkscape:cy="256"
     inkscape:window-x="-8"
     inkscape:window-y="-8"
     inkscape:window-maximized="1"
     inkscape:current-layer="Capa_1" /><g
     id="g7" /><g
     id="g9" /><g
     id="g11" /><g
     id="g13" /><g
     id="g15" /><g
     id="g17" /><g
     id="g19" /><g
     id="g21" /><g
     id="g23" /><g
     id="g25" /><g
     id="g27" /><g
     id="g29" /><g
     id="g31" /><g
     id="g33" /><g
     id="g35" /><g
     id="g4235"
     transform="translate(-714.84745,-3.7940322)"><g
       style="fill:#919191;fill-opacity:1;stroke:#e2e2e2;stroke-width:12.64811897;stroke-miterlimit:4;stroke-dasharray:none;stroke-opacity:1"
       transform="matrix(0.55344199,0,0,0.55344199,818.31885,84.68066)"
       id="g4201"><g
         style="fill:#919191;fill-opacity:1;stroke:#e2e2e2;stroke-width:12.64811897;stroke-miterlimit:4;stroke-dasharray:none;stroke-opacity:1"
         id="g4161"><path
           style="fill:#919191;fill-opacity:1;stroke:#e2e2e2;stroke-width:12.64811897;stroke-miterlimit:4;stroke-dasharray:none;stroke-opacity:1"
           inkscape:connector-curvature="0"
           d="M 256,0 C 114.615,0 0,114.615 0,256 0,397.385 114.615,512 256,512 397.385,512 512,397.385 512,256 512,114.615 397.385,0 256,0 Z m 152.027,408.027 c -19.76,19.759 -42.756,35.267 -68.354,46.094 -6.502,2.75 -13.105,5.164 -19.801,7.246 l 0,-38.367 c 0,-20.167 -6.916,-35 -20.75,-44.5 8.668,-0.833 16.625,-2 23.875,-3.5 7.25,-1.5 14.918,-3.667 23,-6.5 8.084,-2.833 15.334,-6.208 21.75,-10.125 6.418,-3.917 12.584,-9 18.5,-15.25 5.918,-6.25 10.875,-13.333 14.875,-21.25 4,-7.917 7.168,-17.417 9.5,-28.5 2.334,-11.083 3.5,-23.292 3.5,-36.625 0,-25.833 -8.416,-47.833 -25.25,-66 7.668,-20 6.834,-41.75 -2.5,-65.25 l -6.25,-0.75 c -4.332,-0.5 -12.125,1.333 -23.375,5.5 -11.25,4.167 -23.875,11 -37.875,20.5 -19.832,-5.5 -40.416,-8.25 -61.749,-8.25 -21.5,0 -42,2.75 -61.5,8.25 -8.833,-6 -17.208,-10.958 -25.125,-14.875 -7.917,-3.917 -14.25,-6.583 -19,-8 -4.75,-1.417 -9.167,-2.292 -13.25,-2.625 -4.083,-0.333 -6.708,-0.417 -7.875,-0.25 -1.167,0.167 -2,0.333 -2.5,0.5 -9.333,23.667 -10.167,45.417 -2.5,65.25 -16.833,18.167 -25.25,40.167 -25.25,66 0,13.333 1.167,25.542 3.5,36.625 2.333,11.083 5.5,20.583 9.5,28.5 4,7.917 8.958,15 14.875,21.25 5.917,6.25 12.083,11.333 18.5,15.25 6.417,3.917 13.667,7.292 21.75,10.125 8.083,2.833 15.75,5 23,6.5 7.25,1.5 15.208,2.667 23.875,3.5 -13.667,9.333 -20.5,24.167 -20.5,44.5 l 0,39.115 c -7.549,-2.247 -14.99,-4.902 -22.3,-7.994 C 146.726,443.294 123.729,427.786 103.97,408.027 84.212,388.269 68.703,365.271 57.877,339.673 46.679,313.195 41,285.043 41,256 41,226.957 46.679,198.805 57.879,172.325 68.706,146.728 84.214,123.731 103.972,103.972 123.73,84.213 146.728,68.705 172.325,57.879 198.805,46.679 226.957,41 256,41 c 29.043,0 57.195,5.679 83.676,16.879 25.598,10.827 48.594,26.335 68.354,46.093 19.758,19.758 35.266,42.756 46.092,68.353 C 465.32,198.805 471,226.957 471,256 c 0,29.043 -5.68,57.195 -16.879,83.675 -10.826,25.596 -26.336,48.595 -46.094,68.352 z"
           id="path4163" /></g><g
         style="fill:#919191;fill-opacity:1;stroke:#e2e2e2;stroke-width:12.64811897;stroke-miterlimit:4;stroke-dasharray:none;stroke-opacity:1"
         id="g4165" /><g
         style="fill:#919191;fill-opacity:1;stroke:#e2e2e2;stroke-width:12.64811897;stroke-miterlimit:4;stroke-dasharray:none;stroke-opacity:1"
         id="g4167" /><g
         style="fill:#919191;fill-opacity:1;stroke:#e2e2e2;stroke-width:12.64811897;stroke-miterlimit:4;stroke-dasharray:none;stroke-opacity:1"
         id="g4169" /><g
         style="fill:#919191;fill-opacity:1;stroke:#e2e2e2;stroke-width:12.64811897;stroke-miterlimit:4;stroke-dasharray:none;stroke-opacity:1"
         id="g4171" /><g
         style="fill:#919191;fill-opacity:1;stroke:#e2e2e2;stroke-width:12.64811897;stroke-miterlimit:4;stroke-dasharray:none;stroke-opacity:1"
         id="g4173" /><g
         style="fill:#919191;fill-opacity:1;stroke:#e2e2e2;stroke-width:12.64811897;stroke-miterlimit:4;stroke-dasharray:none;stroke-opacity:1"
         id="g4175" /><g
         style="fill:#919191;fill-opacity:1;stroke:#e2e2e2;stroke-width:12.64811897;stroke-miterlimit:4;stroke-dasharray:none;stroke-opacity:1"
         id="g4177" /><g
         style="fill:#919191;fill-opacity:1;stroke:#e2e2e2;stroke-width:12.64811897;stroke-miterlimit:4;stroke-dasharray:none;stroke-opacity:1"
         id="g4179" /><g
         style="fill:#919191;fill-opacity:1;stroke:#e2e2e2;stroke-width:12.64811897;stroke-miterlimit:4;stroke-dasharray:none;stroke-opacity:1"
         id="g4181" /><g
         style="fill:#919191;fill-opacity:1;stroke:#e2e2e2;stroke-width:12.64811897;stroke-miterlimit:4;stroke-dasharray:none;stroke-opacity:1"
         id="g4183" /><g
         style="fill:#919191;fill-opacity:1;stroke:#e2e2e2;stroke-width:12.64811897;stroke-miterlimit:4;stroke-dasharray:none;stroke-opacity:1"
         id="g4185" /><g
         style="fill:#919191;fill-opacity:1;stroke:#e2e2e2;stroke-width:12.64811897;stroke-miterlimit:4;stroke-dasharray:none;stroke-opacity:1"
         id="g4187" /><g
         style="fill:#919191;fill-opacity:1;stroke:#e2e2e2;stroke-width:12.64811897;stroke-miterlimit:4;stroke-dasharray:none;stroke-opacity:1"
         id="g4189" /><g
         style="fill:#919191;fill-opacity:1;stroke:#e2e2e2;stroke-width:12.64811897;stroke-miterlimit:4;stroke-dasharray:none;stroke-opacity:1"
         id="g4191" /><g
         style="fill:#919191;fill-opacity:1;stroke:#e2e2e2;stroke-width:12.64811897;stroke-miterlimit:4;stroke-dasharray:none;stroke-opacity:1"
         id="g4193" /></g><text
       sodipodi:linespacing="125%"
       id="text4220"
       y="433.336"
       x="847.69043"
       style="font-style:normal;font-variant:normal;font-weight:bold;font-stretch:normal;font-size:40px;line-height:125%;font-family:'Segoe UI';-inkscape-font-specification:'Segoe UI Bold';letter-spacing:0px;word-spacing:0px;fill:#000000;fill-opacity:1;stroke:none;stroke-width:1px;stroke-linecap:butt;stroke-linejoin:miter;stroke-opacity:1"
       xml:space="preserve"><tspan
         style="font-size:60px;fill:#e2e2e2;fill-opacity:1"
         y="433.336"
         x="847.69043"
         id="tspan4222"
         sodipodi:role="line">GITHUB</tspan></text>
</g></svg>