<?xml version="1.0" encoding="UTF-8" standalone="no"?>
<!-- Generator: Adobe Illustrator 18.1.1, SVG Export Plug-In . SVG Version: 6.00 Build 0)  -->

<svg
   xmlns:dc="http://purl.org/dc/elements/1.1/"
   xmlns:cc="http://creativecommons.org/ns#"
   xmlns:rdf="http://www.w3.org/1999/02/22-rdf-syntax-ns#"
   xmlns:svg="http://www.w3.org/2000/svg"
   xmlns="http://www.w3.org/2000/svg"
   xmlns:sodipodi="http://sodipodi.sourceforge.net/DTD/sodipodi-0.dtd"
   xmlns:inkscape="http://www.inkscape.org/namespaces/inkscape"
   version="1.1"
   id="Capa_1"
   x="0px"
   y="0px"
   viewBox="0 0 578.952 578.952"
   style="enable-background:new 0 0 578.952 578.952;"
   xml:space="preserve"
   inkscape:version="0.91 r13725"
   sodipodi:docname="linkedin.svg"><metadata
     id="metadata43"><rdf:RDF><cc:Work
         rdf:about=""><dc:format>image/svg+xml</dc:format><dc:type
           rdf:resource="http://purl.org/dc/dcmitype/StillImage" /><dc:title></dc:title></cc:Work></rdf:RDF></metadata><defs
     id="defs41" /><sodipodi:namedview
     pagecolor="#ffffff"
     bordercolor="#666666"
     borderopacity="1"
     objecttolerance="10"
     gridtolerance="10"
     guidetolerance="10"
     inkscape:pageopacity="0"
     inkscape:pageshadow="2"
     inkscape:window-width="1920"
     inkscape:window-height="1017"
     id="namedview39"
     showgrid="false"
     inkscape:zoom="0.40763308"
     inkscape:cx="289.47601"
     inkscape:cy="289.47601"
     inkscape:window-x="-8"
     inkscape:window-y="-8"
     inkscape:window-maximized="1"
     inkscape:current-layer="Capa_1" /><g
     id="g9" /><g
     id="g11" /><g
     id="g13" /><g
     id="g15" /><g
     id="g17" /><g
     id="g19" /><g
     id="g21" /><g
     id="g23" /><g
     id="g25" /><g
     id="g27" /><g
     id="g29" /><g
     id="g31" /><g
     id="g33" /><g
     id="g35" /><g
     id="g37" /><g
     id="g4641"
     transform="translate(-653.35168,-519.96439)"><text
       sodipodi:linespacing="125%"
       id="text4220-1"
       y="990.44788"
       x="820.63477"
       style="font-style:normal;font-variant:normal;font-weight:bold;font-stretch:normal;font-size:40px;line-height:125%;font-family:'Segoe UI';-inkscape-font-specification:'Segoe UI Bold';letter-spacing:0px;word-spacing:0px;fill:#000000;fill-opacity:1;stroke:none;stroke-width:1px;stroke-linecap:butt;stroke-linejoin:miter;stroke-opacity:1"
       xml:space="preserve"><tspan
         style="font-size:60px;fill:#e2e2e2;fill-opacity:1"
         y="990.44788"
         x="820.63477"
         id="tspan4222-6"
         sodipodi:role="line">LINKEDIN</tspan></text>
<g
       id="g4512"
       transform="matrix(0.48576088,0,0,0.48576088,819.38388,641.74569)"
       style="fill:#919191;fill-opacity:1;stroke:#e2e2e2;stroke-width:14.41038227;stroke-miterlimit:4;stroke-dasharray:none;stroke-opacity:1"><g
         id="g4470"
         style="fill:#919191;fill-opacity:1;stroke:#e2e2e2;stroke-width:14.41038227;stroke-miterlimit:4;stroke-dasharray:none;stroke-opacity:1"><g
           id="g4472"
           style="fill:#919191;fill-opacity:1;stroke:#e2e2e2;stroke-width:14.41038227;stroke-miterlimit:4;stroke-dasharray:none;stroke-opacity:1"><path
             id="path4474"
             d="m 484.093,342.107 c 0,-19.176 -2.449,-35.902 -7.344,-50.184 -4.896,-14.28 -11.631,-26.112 -20.197,-35.496 -8.568,-9.384 -18.666,-16.32 -30.293,-20.808 -11.629,-4.488 -24.379,-6.732 -38.25,-6.732 -11.02,0 -20.605,1.326 -28.768,3.978 -8.156,2.652 -15.195,6.12 -21.111,10.404 -5.916,4.284 -10.914,8.874 -14.994,13.77 -4.08,4.896 -7.547,9.384 -10.404,13.464 l 0,-35.496 -83.231,0 c 0.408,6.936 0.612,20.4 0.612,40.392 l 0,75.891 c 0,0 -0.204,45.084 -0.612,135.252 l 83.231,0 0,-140.763 c 0,-3.672 0.205,-7.238 0.613,-10.709 0.408,-3.469 1.223,-6.631 2.447,-9.484 3.264,-7.346 8.262,-14.279 14.992,-20.811 6.732,-6.525 16.016,-9.791 27.848,-9.791 15.096,0 25.908,5.201 32.436,15.605 6.529,10.402 9.793,24.174 9.793,41.311 l 0,134.641 83.232,0 0,-144.434 0,0 z M 141.372,200.736 c 14.688,0 26.316,-4.284 34.884,-12.852 8.568,-8.568 12.648,-18.768 12.24,-30.6 0,-12.24 -4.182,-22.542 -12.546,-30.906 -8.364,-8.364 -19.686,-12.546 -33.966,-12.546 -14.28,0 -25.704,4.182 -34.272,12.546 -8.568,8.364 -12.852,18.666 -12.852,30.906 0,11.832 4.08,22.032 12.24,30.6 8.16,8.568 19.38,12.852 33.66,12.852 l 0.612,0 0,0 z m 41.616,34.272 -83.232,0 0,251.533 83.232,0 0,-251.533 z M 561.815,0 c 4.08,0 7.549,1.326 10.404,3.978 2.854,2.652 4.285,6.018 4.285,10.098 l 0,550.801 c 0,4.08 -1.432,7.443 -4.285,10.098 -2.855,2.652 -6.324,3.977 -10.404,3.977 l -544.679,0 c -4.08,0 -7.548,-1.322 -10.404,-3.977 -2.856,-2.655 -4.284,-6.018 -4.284,-10.098 l 0,-550.801 C 2.448,9.996 3.876,6.63 6.732,3.978 9.588,1.326 13.056,0 17.136,0 l 544.679,0 0,0 z"
             style="fill:#919191;fill-opacity:1;stroke:#e2e2e2;stroke-width:14.41038227;stroke-miterlimit:4;stroke-dasharray:none;stroke-opacity:1"
             inkscape:connector-curvature="0" /></g></g><g
         id="g4476"
         style="fill:#919191;fill-opacity:1;stroke:#e2e2e2;stroke-width:14.41038227;stroke-miterlimit:4;stroke-dasharray:none;stroke-opacity:1" /><g
         id="g4478"
         style="fill:#919191;fill-opacity:1;stroke:#e2e2e2;stroke-width:14.41038227;stroke-miterlimit:4;stroke-dasharray:none;stroke-opacity:1" /><g
         id="g4480"
         style="fill:#919191;fill-opacity:1;stroke:#e2e2e2;stroke-width:14.41038227;stroke-miterlimit:4;stroke-dasharray:none;stroke-opacity:1" /><g
         id="g4482"
         style="fill:#919191;fill-opacity:1;stroke:#e2e2e2;stroke-width:14.41038227;stroke-miterlimit:4;stroke-dasharray:none;stroke-opacity:1" /><g
         id="g4484"
         style="fill:#919191;fill-opacity:1;stroke:#e2e2e2;stroke-width:14.41038227;stroke-miterlimit:4;stroke-dasharray:none;stroke-opacity:1" /><g
         id="g4486"
         style="fill:#919191;fill-opacity:1;stroke:#e2e2e2;stroke-width:14.41038227;stroke-miterlimit:4;stroke-dasharray:none;stroke-opacity:1" /><g
         id="g4488"
         style="fill:#919191;fill-opacity:1;stroke:#e2e2e2;stroke-width:14.41038227;stroke-miterlimit:4;stroke-dasharray:none;stroke-opacity:1" /><g
         id="g4490"
         style="fill:#919191;fill-opacity:1;stroke:#e2e2e2;stroke-width:14.41038227;stroke-miterlimit:4;stroke-dasharray:none;stroke-opacity:1" /><g
         id="g4492"
         style="fill:#919191;fill-opacity:1;stroke:#e2e2e2;stroke-width:14.41038227;stroke-miterlimit:4;stroke-dasharray:none;stroke-opacity:1" /><g
         id="g4494"
         style="fill:#919191;fill-opacity:1;stroke:#e2e2e2;stroke-width:14.41038227;stroke-miterlimit:4;stroke-dasharray:none;stroke-opacity:1" /><g
         id="g4496"
         style="fill:#919191;fill-opacity:1;stroke:#e2e2e2;stroke-width:14.41038227;stroke-miterlimit:4;stroke-dasharray:none;stroke-opacity:1" /><g
         id="g4498"
         style="fill:#919191;fill-opacity:1;stroke:#e2e2e2;stroke-width:14.41038227;stroke-miterlimit:4;stroke-dasharray:none;stroke-opacity:1" /><g
         id="g4500"
         style="fill:#919191;fill-opacity:1;stroke:#e2e2e2;stroke-width:14.41038227;stroke-miterlimit:4;stroke-dasharray:none;stroke-opacity:1" /><g
         id="g4502"
         style="fill:#919191;fill-opacity:1;stroke:#e2e2e2;stroke-width:14.41038227;stroke-miterlimit:4;stroke-dasharray:none;stroke-opacity:1" /><g
         id="g4504"
         style="fill:#919191;fill-opacity:1;stroke:#e2e2e2;stroke-width:14.41038227;stroke-miterlimit:4;stroke-dasharray:none;stroke-opacity:1" /></g></g></svg>