<?xml version="1.0" encoding="UTF-8" standalone="no"?>
<!-- Generator: Adobe Illustrator 16.0.0, SVG Export Plug-In . SVG Version: 6.00 Build 0)  -->

<svg
   xmlns:dc="http://purl.org/dc/elements/1.1/"
   xmlns:cc="http://creativecommons.org/ns#"
   xmlns:rdf="http://www.w3.org/1999/02/22-rdf-syntax-ns#"
   xmlns:svg="http://www.w3.org/2000/svg"
   xmlns="http://www.w3.org/2000/svg"
   xmlns:sodipodi="http://sodipodi.sourceforge.net/DTD/sodipodi-0.dtd"
   xmlns:inkscape="http://www.inkscape.org/namespaces/inkscape"
   version="1.1"
   id="Capa_1"
   x="0px"
   y="0px"
   width="640"
   height="480"
   viewBox="0 0 640 480"
   xml:space="preserve"
   inkscape:version="0.91 r13725"
   sodipodi:docname="microphone.svg"><metadata
     id="metadata45"><rdf:RDF><cc:Work
         rdf:about=""><dc:format>image/svg+xml</dc:format><dc:type
           rdf:resource="http://purl.org/dc/dcmitype/StillImage" /><dc:title></dc:title></cc:Work></rdf:RDF></metadata><defs
     id="defs43" /><sodipodi:namedview
     pagecolor="#ffffff"
     bordercolor="#666666"
     borderopacity="1"
     objecttolerance="10"
     gridtolerance="10"
     guidetolerance="10"
     inkscape:pageopacity="0"
     inkscape:pageshadow="2"
     inkscape:window-width="1920"
     inkscape:window-height="1017"
     id="namedview41"
     showgrid="false"
     inkscape:zoom="0.61034904"
     inkscape:cx="110.40869"
     inkscape:cy="327.16111"
     inkscape:window-x="-8"
     inkscape:window-y="-8"
     inkscape:window-maximized="1"
     inkscape:current-layer="g3" /><g
     id="g3"
     transform="matrix(4.3728814,0,0,4.3728814,102.78397,31.076541)"><g
       id="g5"
       style="fill:#919191;fill-opacity:1"><path
         d="m 48.333,73.296 c 9.519,0 17.263,-7.744 17.263,-17.262 l 0,-38.772 C 65.596,7.743 57.852,0 48.333,0 38.814,0 31.071,7.743 31.071,17.262 l 0,38.773 c 0,9.518 7.743,17.261 17.262,17.261 z"
         id="path7"
         inkscape:connector-curvature="0"
         style="fill:#919191;fill-opacity:1" /><path
         d="m 76.078,45.715 -3.437,0 c -1.104,0 -2,0.896 -2,2 l 0,7.029 c 0,12.3 -10.008,22.308 -22.309,22.308 -12.301,0 -22.307,-10.008 -22.307,-22.308 l 0,-7.029 c 0,-1.104 -0.896,-2 -2,-2 l -3.437,0 c -1.104,0 -2,0.896 -2,2 l 0,7.029 c 0,14.707 11.433,27.667 26.026,29.506 l 0,4.98 -15.35,0 c -1.104,0 -2,0.896 -2,2 l 0,3.436 c 0,1.104 0.896,2 2,2 l 38.138,0 c 1.104,0 2,-0.896 2,-2 l 0,-3.436 c 0,-1.104 -0.896,-2 -2,-2 l -15.351,0 0,-4.98 C 66.645,82.412 78.077,69.451 78.077,54.744 l 0,-7.029 c 0.001,-1.105 -0.895,-2 -1.999,-2 z"
         id="path9"
         inkscape:connector-curvature="0"
         style="fill:#919191;fill-opacity:1" /></g></g><g
     id="g11"
     transform="translate(0,383.334)" /><g
     id="g13"
     transform="translate(0,383.334)" /><g
     id="g15"
     transform="translate(0,383.334)" /><g
     id="g17"
     transform="translate(0,383.334)" /><g
     id="g19"
     transform="translate(0,383.334)" /><g
     id="g21"
     transform="translate(0,383.334)" /><g
     id="g23"
     transform="translate(0,383.334)" /><g
     id="g25"
     transform="translate(0,383.334)" /><g
     id="g27"
     transform="translate(0,383.334)" /><g
     id="g29"
     transform="translate(0,383.334)" /><g
     id="g31"
     transform="translate(0,383.334)" /><g
     id="g33"
     transform="translate(0,383.334)" /><g
     id="g35"
     transform="translate(0,383.334)" /><g
     id="g37"
     transform="translate(0,383.334)" /><g
     id="g39"
     transform="translate(0,383.334)" /></svg>