<?xml version="1.0" encoding="UTF-8" standalone="no"?>
<!-- Generator: Adobe Illustrator 16.0.0, SVG Export Plug-In . SVG Version: 6.00 Build 0)  -->

<svg
   xmlns:dc="http://purl.org/dc/elements/1.1/"
   xmlns:cc="http://creativecommons.org/ns#"
   xmlns:rdf="http://www.w3.org/1999/02/22-rdf-syntax-ns#"
   xmlns:svg="http://www.w3.org/2000/svg"
   xmlns="http://www.w3.org/2000/svg"
   xmlns:sodipodi="http://sodipodi.sourceforge.net/DTD/sodipodi-0.dtd"
   xmlns:inkscape="http://www.inkscape.org/namespaces/inkscape"
   version="1.1"
   id="Capa_1"
   x="0px"
   y="0px"
   width="640"
   height="480"
   viewBox="0 0 639.99998 479.99999"
   xml:space="preserve"
   inkscape:version="0.91 r13725"
   sodipodi:docname="remote.svg"><metadata
     id="metadata55"><rdf:RDF><cc:Work
         rdf:about=""><dc:format>image/svg+xml</dc:format><dc:type
           rdf:resource="http://purl.org/dc/dcmitype/StillImage" /><dc:title></dc:title></cc:Work></rdf:RDF></metadata><defs
     id="defs53" /><sodipodi:namedview
     pagecolor="#ffffff"
     bordercolor="#666666"
     borderopacity="1"
     objecttolerance="10"
     gridtolerance="10"
     guidetolerance="10"
     inkscape:pageopacity="0"
     inkscape:pageshadow="2"
     inkscape:window-width="1920"
     inkscape:window-height="1017"
     id="namedview51"
     showgrid="false"
     inkscape:zoom="0.74835344"
     inkscape:cx="-39.419876"
     inkscape:cy="157.6795"
     inkscape:window-x="-8"
     inkscape:window-y="-8"
     inkscape:window-maximized="1"
     inkscape:current-layer="Capa_1" /><g
     id="g3"
     transform="matrix(1.4025563,0,0,1.4025563,92.202523,22.9939)"
     style="fill:#919191;fill-opacity:1"><g
       id="g5"
       style="fill:#919191;fill-opacity:1"><path
         d="m 170.42,153.865 c 9.128,0 16.531,7.403 16.531,16.537 0,9.133 -7.403,16.537 -16.531,16.537 -9.136,0 -16.537,-7.404 -16.537,-16.537 0,-9.134 7.402,-16.537 16.537,-16.537 z"
         id="path7"
         inkscape:connector-curvature="0"
         style="fill:#919191;fill-opacity:1" /><circle
         cx="144.30299"
         cy="196.507"
         r="16.528"
         id="circle9"
         style="fill:#919191;fill-opacity:1" /><path
         d="m 130.537,159.359 c -6.464,-6.455 -16.937,-6.449 -23.385,0 -6.449,6.461 -6.456,16.921 0,23.395 6.449,6.443 16.933,6.443 23.385,0 6.455,-6.467 6.455,-16.934 0,-23.395 z"
         id="path11"
         inkscape:connector-curvature="0"
         style="fill:#919191;fill-opacity:1" /><path
         d="m 144.955,128.425 c 9.133,0 16.534,7.404 16.534,16.534 0,9.127 -7.401,16.531 -16.534,16.531 -9.13,0 -16.534,-7.404 -16.534,-16.531 -0.001,-9.13 7.403,-16.534 16.534,-16.534 z"
         id="path13"
         inkscape:connector-curvature="0"
         style="fill:#919191;fill-opacity:1" /><path
         d="m 197.31,126.993 c 9.128,0 16.531,7.401 16.531,16.534 0,9.131 -7.403,16.534 -16.531,16.534 -9.133,0 -16.537,-7.403 -16.537,-16.534 0,-9.133 7.404,-16.534 16.537,-16.534 z"
         id="path15"
         inkscape:connector-curvature="0"
         style="fill:#919191;fill-opacity:1" /><path
         d="m 304.19,65.195 -54.02,-54.01 c -14.897,-14.907 -39.146,-14.907 -54.062,0 L 11.18,196.108 c -14.907,14.91 -14.907,39.157 0,54.062 l 54.016,54.007 c 14.901,14.904 39.145,14.904 54.049,0 L 304.19,119.25 c 14.892,-14.904 14.892,-39.148 0,-54.055 z m -163.649,166.786 -57.163,-57.154 91.45,-91.438 57.147,57.153 -91.434,91.439 z"
         id="path17"
         inkscape:connector-curvature="0"
         style="fill:#919191;fill-opacity:1" /><circle
         cx="171.85001"
         cy="118.064"
         r="16.534"
         id="circle19"
         style="fill:#919191;fill-opacity:1" /></g></g><g
     id="g21"
     transform="translate(0,164.64099)" /><g
     id="g23"
     transform="translate(0,164.64099)" /><g
     id="g25"
     transform="translate(0,164.64099)" /><g
     id="g27"
     transform="translate(0,164.64099)" /><g
     id="g29"
     transform="translate(0,164.64099)" /><g
     id="g31"
     transform="translate(0,164.64099)" /><g
     id="g33"
     transform="translate(0,164.64099)" /><g
     id="g35"
     transform="translate(0,164.64099)" /><g
     id="g37"
     transform="translate(0,164.64099)" /><g
     id="g39"
     transform="translate(0,164.64099)" /><g
     id="g41"
     transform="translate(0,164.64099)" /><g
     id="g43"
     transform="translate(0,164.64099)" /><g
     id="g45"
     transform="translate(0,164.64099)" /><g
     id="g47"
     transform="translate(0,164.64099)" /><g
     id="g49"
     transform="translate(0,164.64099)" /></svg>