<?xml version="1.0" encoding="UTF-8" standalone="no"?>
<!-- Created with Inkscape (http://www.inkscape.org/) -->

<svg
   xmlns:dc="http://purl.org/dc/elements/1.1/"
   xmlns:cc="http://creativecommons.org/ns#"
   xmlns:rdf="http://www.w3.org/1999/02/22-rdf-syntax-ns#"
   xmlns:svg="http://www.w3.org/2000/svg"
   xmlns="http://www.w3.org/2000/svg"
   xmlns:xlink="http://www.w3.org/1999/xlink"
   xmlns:sodipodi="http://sodipodi.sourceforge.net/DTD/sodipodi-0.dtd"
   xmlns:inkscape="http://www.inkscape.org/namespaces/inkscape"
   width="2560"
   height="1920"
   viewBox="0 0 2560 1920"
   id="svg4358"
   version="1.1"
   inkscape:version="0.91 r13725"
   inkscape:export-filename="C:\github\samkristoff\website\media\thumbnails\export\sam-kristoff-logo-256.png"
   inkscape:export-xdpi="9"
   inkscape:export-ydpi="9"
   sodipodi:docname="setup.svg">
  <defs
     id="defs4360">
    <linearGradient
       inkscape:collect="always"
       xlink:href="#linearGradient4229"
       id="linearGradient4235"
       x1="221.46738"
       y1="163.42796"
       x2="471.49728"
       y2="163.42796"
       gradientUnits="userSpaceOnUse"
       spreadMethod="pad"
       gradientTransform="matrix(9.1724452,0,0,9.1724452,-1898.0955,-1406.6626)" />
    <linearGradient
       inkscape:collect="always"
       id="linearGradient4229">
      <stop
         style="stop-color:#919191;stop-opacity:1"
         offset="0"
         id="stop4231" />
      <stop
         id="stop4237"
         offset="0.5"
         style="stop-color:#919191;stop-opacity:1" />
      <stop
         style="stop-color:#828282;stop-opacity:1"
         offset="0.50052214"
         id="stop4239" />
      <stop
         style="stop-color:#828282;stop-opacity:1"
         offset="1"
         id="stop4233" />
    </linearGradient>
  </defs>
  <sodipodi:namedview
     id="base"
     pagecolor="#ffffff"
     bordercolor="#666666"
     borderopacity="1.0"
     inkscape:pageopacity="0.0"
     inkscape:pageshadow="2"
     inkscape:zoom="0.1924758"
     inkscape:cx="-789.96591"
     inkscape:cy="-35.964231"
     inkscape:document-units="px"
     inkscape:current-layer="layer1"
     showgrid="false"
     inkscape:window-width="1920"
     inkscape:window-height="1017"
     inkscape:window-x="1912"
     inkscape:window-y="-8"
     inkscape:window-maximized="1"
     units="px" />
  <metadata
     id="metadata4363">
    <rdf:RDF>
      <cc:Work
         rdf:about="">
        <dc:format>image/svg+xml</dc:format>
        <dc:type
           rdf:resource="http://purl.org/dc/dcmitype/StillImage" />
        <dc:title></dc:title>
      </cc:Work>
    </rdf:RDF>
  </metadata>
  <g
     inkscape:label="Layer 1"
     inkscape:groupmode="layer"
     id="layer1"
     transform="translate(0,867.63819)">
    <g
       id="g4207"
       transform="matrix(0.43076499,0,0,0.43076499,728.62081,52.575574)">
      <path
         sodipodi:nodetypes="ccccc"
         inkscape:connector-curvature="0"
         id="rect4147-5"
         d="m 171.98236,-485.42211 c 582.16259,-353.13648 1861.17574,-246.53056 2231.41774,13.10348 19.475,390.051919 8.3653,822.62663 -19.6556,1143.82771 C 1811.2839,946.27111 717.19009,1003.7853 155.60302,642.02613 148.78393,282.41602 133.44448,25.015401 171.98236,-485.42211 Z"
         style="opacity:1;fill:url(#linearGradient4235);fill-opacity:1;stroke:#dfdfdf;stroke-width:55.03467178;stroke-linecap:butt;stroke-linejoin:round;stroke-miterlimit:4;stroke-dasharray:none;stroke-opacity:1" />
      <g
         style="fill:#e2e2e2;fill-opacity:1"
         transform="matrix(5.7950447,0,0,5.7950447,648.93384,-538.69521)"
         id="g4184">
        <path
           style="fill:#e2e2e2;fill-opacity:1"
           inkscape:connector-curvature="0"
           d="m 113.595,133.642 -5.932,-13.169 c 5.655,-4.151 10.512,-9.315 14.307,-15.209 l 13.507,5.118 c 2.583,0.979 5.469,-0.322 6.447,-2.904 l 4.964,-13.103 c 0.47,-1.24 0.428,-2.616 -0.117,-3.825 -0.545,-1.209 -1.547,-2.152 -2.788,-2.622 L 130.476,82.81 c 1.064,-6.93 0.848,-14.014 -0.637,-20.871 l 13.169,-5.932 c 1.209,-0.545 2.152,-1.547 2.622,-2.788 0.47,-1.24 0.428,-2.616 -0.117,-3.825 l -5.755,-12.775 c -1.134,-2.518 -4.096,-3.638 -6.612,-2.505 l -13.169,5.932 c -4.151,-5.655 -9.315,-10.512 -15.209,-14.307 l 5.118,-13.507 C 110.864,9.65 109.564,6.763 106.982,5.785 L 93.88,0.82 C 92.641,0.351 91.265,0.392 90.055,0.937 88.846,1.482 87.903,2.484 87.433,3.725 L 82.316,17.231 C 75.379,16.161 68.283,16.382 61.444,17.867 L 55.513,4.699 C 54.968,3.49 53.966,2.547 52.725,2.077 51.486,1.608 50.109,1.649 48.9,2.194 L 36.124,7.949 c -2.518,1.134 -3.639,4.094 -2.505,6.612 L 39.551,27.73 C 33.896,31.881 29.039,37.045 25.244,42.939 L 11.737,37.821 C 10.498,37.352 9.122,37.394 7.912,37.938 6.703,38.483 5.76,39.485 5.29,40.726 L 0.326,53.828 c -0.978,2.582 0.322,5.469 2.904,6.447 l 13.507,5.118 c -1.064,6.929 -0.848,14.015 0.637,20.871 l -13.17,5.932 c -1.209,0.545 -2.152,1.547 -2.622,2.788 -0.47,1.24 -0.428,2.616 0.117,3.825 l 5.755,12.775 c 0.544,1.209 1.547,2.152 2.787,2.622 1.241,0.47 2.616,0.429 3.825,-0.117 l 13.169,-5.932 c 4.151,5.656 9.314,10.512 15.209,14.307 l -5.118,13.507 c -0.978,2.582 0.322,5.469 2.904,6.447 l 13.103,4.964 c 0.571,0.216 1.172,0.324 1.771,0.324 0.701,0 1.402,-0.147 2.054,-0.441 1.209,-0.545 2.152,-1.547 2.622,-2.788 l 5.117,-13.506 c 6.937,1.069 14.034,0.849 20.872,-0.636 l 5.931,13.168 c 0.545,1.209 1.547,2.152 2.788,2.622 1.24,0.47 2.617,0.429 3.825,-0.117 l 12.775,-5.754 c 2.519,-1.134 3.641,-4.094 2.507,-6.612 z m -8.286,-47.529 c -4.963,13.1 -17.706,21.901 -31.709,21.901 -4.096,0 -8.135,-0.744 -12.005,-2.21 -8.468,-3.208 -15.18,-9.522 -18.899,-17.779 -3.719,-8.256 -4,-17.467 -0.792,-25.935 4.963,-13.1 17.706,-21.901 31.709,-21.901 4.096,0 8.135,0.744 12.005,2.21 8.468,3.208 15.18,9.522 18.899,17.778 3.72,8.257 4.001,17.468 0.792,25.936 z m 111.169,68.276 c -0.896,-0.977 -2.145,-1.558 -3.469,-1.615 l -9.418,-0.404 c -0.867,-4.445 -2.433,-8.736 -4.633,-12.697 l 6.945,-6.374 c 2.035,-1.867 2.17,-5.03 0.303,-7.064 l -6.896,-7.514 c -0.896,-0.977 -2.145,-1.558 -3.47,-1.615 -1.322,-0.049 -2.618,0.416 -3.595,1.312 l -6.944,6.374 c -3.759,-2.531 -7.9,-4.458 -12.254,-5.702 l 0.404,-9.418 c 0.118,-2.759 -2.023,-5.091 -4.782,-5.209 l -10.189,-0.437 c -2.745,-0.104 -5.091,2.023 -5.209,4.781 l -0.404,9.418 c -4.444,0.867 -8.735,2.433 -12.697,4.632 l -6.374,-6.945 c -0.896,-0.977 -2.145,-1.558 -3.469,-1.615 -1.324,-0.054 -2.618,0.416 -3.595,1.312 l -7.514,6.896 c -2.035,1.867 -2.17,5.03 -0.303,7.064 l 6.374,6.945 c -2.531,3.759 -4.458,7.899 -5.702,12.254 l -9.417,-0.404 c -2.747,-0.111 -5.092,2.022 -5.21,4.781 l -0.437,10.189 c -0.057,1.325 0.415,2.618 1.312,3.595 0.896,0.977 2.145,1.558 3.47,1.615 l 9.417,0.403 c 0.867,4.445 2.433,8.736 4.632,12.698 l -6.944,6.374 c -0.977,0.896 -1.558,2.145 -1.615,3.469 -0.057,1.325 0.415,2.618 1.312,3.595 l 6.896,7.514 c 0.896,0.977 2.145,1.558 3.47,1.615 1.319,0.053 2.618,-0.416 3.595,-1.312 l 6.944,-6.374 c 3.759,2.531 7.9,4.458 12.254,5.702 l -0.404,9.418 c -0.118,2.759 2.022,5.091 4.781,5.209 l 10.189,0.437 c 0.072,0.003 0.143,0.004 0.214,0.004 1.25,0 2.457,-0.468 3.381,-1.316 0.977,-0.896 1.558,-2.145 1.615,-3.469 l 0.404,-9.418 c 4.444,-0.867 8.735,-2.433 12.697,-4.632 l 6.374,6.945 c 0.896,0.977 2.145,1.558 3.469,1.615 1.33,0.058 2.619,-0.416 3.595,-1.312 l 7.514,-6.896 c 2.035,-1.867 2.17,-5.03 0.303,-7.064 l -6.374,-6.945 c 2.531,-3.759 4.458,-7.899 5.702,-12.254 l 9.417,0.404 c 2.756,0.106 5.091,-2.022 5.21,-4.781 l 0.437,-10.189 c 0.057,-1.325 -0.415,-2.618 -1.312,-3.595 z m -56.321,29.564 c -12.844,-0.55 -22.846,-11.448 -22.295,-24.292 0.536,-12.514 10.759,-22.317 23.273,-22.317 0.338,0 0.678,0.007 1.019,0.022 12.844,0.551 22.846,11.448 22.295,24.292 -0.551,12.853 -11.343,22.839 -24.292,22.295 z"
           id="path4146" />
        <g
           style="fill:#e2e2e2;fill-opacity:1"
           id="g4148" />
        <g
           style="fill:#e2e2e2;fill-opacity:1"
           id="g4150" />
        <g
           style="fill:#e2e2e2;fill-opacity:1"
           id="g4152" />
        <g
           style="fill:#e2e2e2;fill-opacity:1"
           id="g4154" />
        <g
           style="fill:#e2e2e2;fill-opacity:1"
           id="g4156" />
        <g
           style="fill:#e2e2e2;fill-opacity:1"
           id="g4158" />
        <g
           style="fill:#e2e2e2;fill-opacity:1"
           id="g4160" />
        <g
           style="fill:#e2e2e2;fill-opacity:1"
           id="g4162" />
        <g
           style="fill:#e2e2e2;fill-opacity:1"
           id="g4164" />
        <g
           style="fill:#e2e2e2;fill-opacity:1"
           id="g4166" />
        <g
           style="fill:#e2e2e2;fill-opacity:1"
           id="g4168" />
        <g
           style="fill:#e2e2e2;fill-opacity:1"
           id="g4170" />
        <g
           style="fill:#e2e2e2;fill-opacity:1"
           id="g4172" />
        <g
           style="fill:#e2e2e2;fill-opacity:1"
           id="g4174" />
        <g
           style="fill:#e2e2e2;fill-opacity:1"
           id="g4176" />
      </g>
    </g>
  </g>
</svg>
