<?xml version="1.0" encoding="UTF-8" standalone="no"?>
<!-- Generator: Adobe Illustrator 16.0.0, SVG Export Plug-In . SVG Version: 6.00 Build 0)  -->

<svg
   xmlns:dc="http://purl.org/dc/elements/1.1/"
   xmlns:cc="http://creativecommons.org/ns#"
   xmlns:rdf="http://www.w3.org/1999/02/22-rdf-syntax-ns#"
   xmlns:svg="http://www.w3.org/2000/svg"
   xmlns="http://www.w3.org/2000/svg"
   xmlns:sodipodi="http://sodipodi.sourceforge.net/DTD/sodipodi-0.dtd"
   xmlns:inkscape="http://www.inkscape.org/namespaces/inkscape"
   version="1.1"
   id="Capa_1"
   x="0px"
   y="0px"
   width="612px"
   height="612px"
   viewBox="0 0 612 612"
   style="enable-background:new 0 0 612 612;"
   xml:space="preserve"
   inkscape:version="0.91 r13725"
   sodipodi:docname="tv.svg"><metadata
     id="metadata41"><rdf:RDF><cc:Work
         rdf:about=""><dc:format>image/svg+xml</dc:format><dc:type
           rdf:resource="http://purl.org/dc/dcmitype/StillImage" /><dc:title></dc:title></cc:Work></rdf:RDF></metadata><defs
     id="defs39" /><sodipodi:namedview
     pagecolor="#ffffff"
     bordercolor="#666666"
     borderopacity="1"
     objecttolerance="10"
     gridtolerance="10"
     guidetolerance="10"
     inkscape:pageopacity="0"
     inkscape:pageshadow="2"
     inkscape:window-width="1920"
     inkscape:window-height="1017"
     id="namedview37"
     showgrid="false"
     inkscape:zoom="0.38562092"
     inkscape:cx="306"
     inkscape:cy="306"
     inkscape:window-x="-8"
     inkscape:window-y="-8"
     inkscape:window-maximized="1"
     inkscape:current-layer="Capa_1" /><g
     id="g3"
     style="fill:#919191;fill-opacity:1;stroke:#e2e2e2;stroke-width:7;stroke-miterlimit:4;stroke-dasharray:none;stroke-opacity:1"
     transform="matrix(0.42908628,0,0,0.42908628,169.15434,182.47869)"><path
       d="m 578.766,51.487 0,-0.895 -2.996,0 -539.84,0 -2.996,0 0,0.895 C 15.272,52.701 2.095,66.753 0,83.808 l 0,3.002 0,355.724 c 0,6.898 1.795,12.712 4.791,17.949 6.893,12.137 17.068,18.269 31.14,18.269 l 197.012,0 0,49.695 -37.425,0 c -9.281,0 -16.467,7.218 -16.467,16.48 0,9.262 7.186,16.479 16.467,16.479 l 220.666,0 c 9.281,0 16.768,-7.218 16.768,-16.479 0,-9.263 -7.486,-16.48 -16.768,-16.48 l -37.425,0 0,-49.695 197.011,0 c 14.078,0 24.343,-6.132 31.14,-18.269 3.085,-5.493 5.091,-11.37 5.091,-17.949 l 0,-355.723 0,-3.002 C 609.905,66.753 595.833,52.701 578.766,51.487 Z m 0,35.324 0,355.724 c 0,2.108 -0.895,3.002 -2.996,3.002 l -539.84,0 c -2.095,0 -2.996,-0.894 -2.996,-3.002 l 0,-355.724 0,-3.002 545.831,0 0,3.002 z"
       id="path5"
       style="fill:#919191;fill-opacity:1;stroke:#e2e2e2;stroke-width:7;stroke-miterlimit:4;stroke-dasharray:none;stroke-opacity:1"
       inkscape:connector-curvature="0" /></g><g
     id="g7" /><g
     id="g9" /><g
     id="g11" /><g
     id="g13" /><g
     id="g15" /><g
     id="g17" /><g
     id="g19" /><g
     id="g21" /><g
     id="g23" /><g
     id="g25" /><g
     id="g27" /><g
     id="g29" /><g
     id="g31" /><g
     id="g33" /><g
     id="g35" /></svg>