<?xml version="1.0" encoding="UTF-8" standalone="no"?>
<!-- Created with Inkscape (http://www.inkscape.org/) -->

<svg
   xmlns:dc="http://purl.org/dc/elements/1.1/"
   xmlns:cc="http://creativecommons.org/ns#"
   xmlns:rdf="http://www.w3.org/1999/02/22-rdf-syntax-ns#"
   xmlns:svg="http://www.w3.org/2000/svg"
   xmlns="http://www.w3.org/2000/svg"
   xmlns:xlink="http://www.w3.org/1999/xlink"
   xmlns:sodipodi="http://sodipodi.sourceforge.net/DTD/sodipodi-0.dtd"
   xmlns:inkscape="http://www.inkscape.org/namespaces/inkscape"
   width="1920"
   height="1080"
   viewBox="0 0 1920 1080"
   id="svg4358"
   version="1.1"
   inkscape:version="0.91 r13725"
   inkscape:export-filename="C:\github\samkristoff\website\media\thumbnails\export\video-outro-1920.png"
   inkscape:export-xdpi="90"
   inkscape:export-ydpi="90"
   sodipodi:docname="video-outro.svg">
  <defs
     id="defs4360">
    <linearGradient
       inkscape:collect="always"
       xlink:href="#linearGradient4229"
       id="linearGradient4235"
       x1="221.46738"
       y1="163.42796"
       x2="471.49728"
       y2="163.42796"
       gradientUnits="userSpaceOnUse"
       spreadMethod="pad"
       gradientTransform="matrix(1.9201599,0,0,1.9201599,-214.57538,-127.63831)" />
    <linearGradient
       inkscape:collect="always"
       id="linearGradient4229">
      <stop
         style="stop-color:#919191;stop-opacity:1"
         offset="0"
         id="stop4231" />
      <stop
         id="stop4237"
         offset="0.5"
         style="stop-color:#919191;stop-opacity:1" />
      <stop
         style="stop-color:#828282;stop-opacity:1"
         offset="0.50052214"
         id="stop4239" />
      <stop
         style="stop-color:#828282;stop-opacity:1"
         offset="1"
         id="stop4233" />
    </linearGradient>
  </defs>
  <sodipodi:namedview
     id="base"
     pagecolor="#515151"
     bordercolor="#666666"
     borderopacity="1.0"
     inkscape:pageopacity="1"
     inkscape:pageshadow="2"
     inkscape:zoom="0.54440377"
     inkscape:cx="1178.0348"
     inkscape:cy="473.50279"
     inkscape:document-units="px"
     inkscape:current-layer="layer1"
     showgrid="false"
     inkscape:window-width="1920"
     inkscape:window-height="1017"
     inkscape:window-x="1912"
     inkscape:window-y="-8"
     inkscape:window-maximized="1"
     units="px"
     showguides="true"
     inkscape:guide-bbox="true"
     inkscape:snap-to-guides="true"
     inkscape:snap-object-midpoints="true">
    <sodipodi:guide
       position="1440,720"
       orientation="1,0"
       id="guide3351"
       inkscape:label=""
       inkscape:color="rgb(0,0,255)" />
    <sodipodi:guide
       position="480,720"
       orientation="1,0"
       id="guide3353"
       inkscape:label=""
       inkscape:color="rgb(0,0,255)" />
    <sodipodi:guide
       position="1272.9522,541.87722"
       orientation="0,1"
       id="guide3355"
       inkscape:label=""
       inkscape:color="rgb(0,0,255)" />
    <sodipodi:guide
       position="960,540"
       orientation="1,0"
       id="guide3357"
       inkscape:label=""
       inkscape:color="rgb(0,0,255)" />
    <sodipodi:guide
       position="480,270"
       orientation="0,1"
       id="guide4156"
       inkscape:label=""
       inkscape:color="rgb(0,0,255)" />
    <sodipodi:guide
       position="1440,810"
       orientation="0,1"
       id="guide4158"
       inkscape:label=""
       inkscape:color="rgb(0,0,255)" />
    <sodipodi:guide
       position="786.18118,683.31636"
       orientation="0,1"
       id="guide4257" />
  </sodipodi:namedview>
  <metadata
     id="metadata4363">
    <rdf:RDF>
      <cc:Work
         rdf:about="">
        <dc:format>image/svg+xml</dc:format>
        <dc:type
           rdf:resource="http://purl.org/dc/dcmitype/StillImage" />
        <dc:title />
      </cc:Work>
    </rdf:RDF>
  </metadata>
  <g
     inkscape:label="Layer 1"
     inkscape:groupmode="layer"
     id="layer1"
     transform="translate(0,27.63819)">
    <g
       id="g4151"
       transform="matrix(1.4416805,0,0,1.4416805,-1576.5724,-988.93284)"
       inkscape:export-filename="C:\github\samkristoff\website\media\projects\website\export\sam-kristoff-wallpaper-1920.png"
       inkscape:export-xdpi="90"
       inkscape:export-ydpi="90">
      <g
         id="g4224"
         transform="translate(-332.94481,1.5030346e-6)">
        <text
           xml:space="preserve"
           style="font-style:normal;font-weight:normal;font-size:40px;line-height:125%;font-family:sans-serif;letter-spacing:0px;word-spacing:0px;fill:#000000;fill-opacity:1;stroke:none;stroke-width:1px;stroke-linecap:butt;stroke-linejoin:miter;stroke-opacity:1"
           x="1567.1952"
           y="943.98633"
           id="text3345"
           sodipodi:linespacing="125%"><tspan
             sodipodi:role="line"
             id="tspan3347"
             x="1567.1952"
             y="943.98633"
             style="font-style:normal;font-variant:normal;font-weight:bold;font-stretch:normal;font-size:41.61809921px;font-family:'Segoe UI';-inkscape-font-specification:'Segoe UI Bold';fill:#e2e2e2;fill-opacity:1">SAMKRISTOFF.COM</tspan><tspan
             sodipodi:role="line"
             x="1567.1952"
             y="996.00897"
             id="tspan4149" /></text>
        <g
           id="g4932"
           transform="matrix(0.49980926,0,0,0.49980926,1534.1777,719.40268)">
          <path
             sodipodi:nodetypes="ccccc"
             inkscape:connector-curvature="0"
             id="rect4147-5"
             d="M 218.77476,65.214199 C 340.64469,-8.7114005 608.39333,13.605485 685.89981,67.957282 689.9767,149.61076 687.651,240.16596 681.7851,307.4062 561.94619,364.92489 332.90856,376.96491 215.34591,301.23424 213.9184,225.95345 210.70724,172.0692 218.77476,65.214199 Z"
             style="opacity:1;fill:url(#linearGradient4235);fill-opacity:1;stroke:#dfdfdf;stroke-width:11.52095985;stroke-linecap:butt;stroke-linejoin:round;stroke-miterlimit:4;stroke-dasharray:none;stroke-opacity:1" />
          <text
             inkscape:transform-center-y="-14.547403"
             inkscape:transform-center-x="-25.215504"
             sodipodi:linespacing="125%"
             id="text4241-7"
             y="286.93582"
             x="249.65602"
             style="font-style:normal;font-variant:normal;font-weight:bold;font-stretch:normal;font-size:288.02398682px;line-height:125%;font-family:'Segoe UI';-inkscape-font-specification:'Segoe UI Bold';letter-spacing:0px;word-spacing:0px;fill:#e2e2e2;fill-opacity:1;stroke:none;stroke-width:1px;stroke-linecap:butt;stroke-linejoin:miter;stroke-opacity:1"
             xml:space="preserve"><tspan
               dx="0"
               dy="0"
               y="286.93582"
               x="249.65602"
               id="tspan4243-0"
               sodipodi:role="line">S</tspan></text>
          <text
             sodipodi:linespacing="125%"
             id="text4241-9"
             y="287.00613"
             x="462.7803"
             style="font-style:normal;font-variant:normal;font-weight:bold;font-stretch:normal;font-size:288.02398682px;line-height:125%;font-family:'Segoe UI';-inkscape-font-specification:'Segoe UI Bold';letter-spacing:0px;word-spacing:0px;fill:#e2e2e2;fill-opacity:1;stroke:none;stroke-width:1px;stroke-linecap:butt;stroke-linejoin:miter;stroke-opacity:1"
             xml:space="preserve"><tspan
               dx="0"
               dy="0"
               y="287.00613"
               x="462.7803"
               id="tspan4243-1"
               sodipodi:role="line">K</tspan></text>
        </g>
      </g>
    </g>
    <g
       id="g4235"
       transform="translate(480.00002,-63.999999)">
      <g
         id="g4369">
        <g
           id="g4201"
           transform="matrix(0.55344199,0,0,0.55344199,818.31885,84.68066)"
           style="fill:#919191;fill-opacity:1;stroke:#e2e2e2;stroke-width:12.64811897;stroke-miterlimit:4;stroke-dasharray:none;stroke-opacity:1">
          <g
             id="g4161"
             style="fill:#919191;fill-opacity:1;stroke:#e2e2e2;stroke-width:12.64811897;stroke-miterlimit:4;stroke-dasharray:none;stroke-opacity:1">
            <path
               id="path4163"
               d="M 256,0 C 114.615,0 0,114.615 0,256 0,397.385 114.615,512 256,512 397.385,512 512,397.385 512,256 512,114.615 397.385,0 256,0 Z m 152.027,408.027 c -19.76,19.759 -42.756,35.267 -68.354,46.094 -6.502,2.75 -13.105,5.164 -19.801,7.246 l 0,-38.367 c 0,-20.167 -6.916,-35 -20.75,-44.5 8.668,-0.833 16.625,-2 23.875,-3.5 7.25,-1.5 14.918,-3.667 23,-6.5 8.084,-2.833 15.334,-6.208 21.75,-10.125 6.418,-3.917 12.584,-9 18.5,-15.25 5.918,-6.25 10.875,-13.333 14.875,-21.25 4,-7.917 7.168,-17.417 9.5,-28.5 2.334,-11.083 3.5,-23.292 3.5,-36.625 0,-25.833 -8.416,-47.833 -25.25,-66 7.668,-20 6.834,-41.75 -2.5,-65.25 l -6.25,-0.75 c -4.332,-0.5 -12.125,1.333 -23.375,5.5 -11.25,4.167 -23.875,11 -37.875,20.5 -19.832,-5.5 -40.416,-8.25 -61.749,-8.25 -21.5,0 -42,2.75 -61.5,8.25 -8.833,-6 -17.208,-10.958 -25.125,-14.875 -7.917,-3.917 -14.25,-6.583 -19,-8 -4.75,-1.417 -9.167,-2.292 -13.25,-2.625 -4.083,-0.333 -6.708,-0.417 -7.875,-0.25 -1.167,0.167 -2,0.333 -2.5,0.5 -9.333,23.667 -10.167,45.417 -2.5,65.25 -16.833,18.167 -25.25,40.167 -25.25,66 0,13.333 1.167,25.542 3.5,36.625 2.333,11.083 5.5,20.583 9.5,28.5 4,7.917 8.958,15 14.875,21.25 5.917,6.25 12.083,11.333 18.5,15.25 6.417,3.917 13.667,7.292 21.75,10.125 8.083,2.833 15.75,5 23,6.5 7.25,1.5 15.208,2.667 23.875,3.5 -13.667,9.333 -20.5,24.167 -20.5,44.5 l 0,39.115 c -7.549,-2.247 -14.99,-4.902 -22.3,-7.994 C 146.726,443.294 123.729,427.786 103.97,408.027 84.212,388.269 68.703,365.271 57.877,339.673 46.679,313.195 41,285.043 41,256 41,226.957 46.679,198.805 57.879,172.325 68.706,146.728 84.214,123.731 103.972,103.972 123.73,84.213 146.728,68.705 172.325,57.879 198.805,46.679 226.957,41 256,41 c 29.043,0 57.195,5.679 83.676,16.879 25.598,10.827 48.594,26.335 68.354,46.093 19.758,19.758 35.266,42.756 46.092,68.353 C 465.32,198.805 471,226.957 471,256 c 0,29.043 -5.68,57.195 -16.879,83.675 -10.826,25.596 -26.336,48.595 -46.094,68.352 z"
               inkscape:connector-curvature="0"
               style="fill:#919191;fill-opacity:1;stroke:#e2e2e2;stroke-width:12.64811897;stroke-miterlimit:4;stroke-dasharray:none;stroke-opacity:1" />
          </g>
          <g
             id="g4165"
             style="fill:#919191;fill-opacity:1;stroke:#e2e2e2;stroke-width:12.64811897;stroke-miterlimit:4;stroke-dasharray:none;stroke-opacity:1" />
          <g
             id="g4167"
             style="fill:#919191;fill-opacity:1;stroke:#e2e2e2;stroke-width:12.64811897;stroke-miterlimit:4;stroke-dasharray:none;stroke-opacity:1" />
          <g
             id="g4169"
             style="fill:#919191;fill-opacity:1;stroke:#e2e2e2;stroke-width:12.64811897;stroke-miterlimit:4;stroke-dasharray:none;stroke-opacity:1" />
          <g
             id="g4171"
             style="fill:#919191;fill-opacity:1;stroke:#e2e2e2;stroke-width:12.64811897;stroke-miterlimit:4;stroke-dasharray:none;stroke-opacity:1" />
          <g
             id="g4173"
             style="fill:#919191;fill-opacity:1;stroke:#e2e2e2;stroke-width:12.64811897;stroke-miterlimit:4;stroke-dasharray:none;stroke-opacity:1" />
          <g
             id="g4175"
             style="fill:#919191;fill-opacity:1;stroke:#e2e2e2;stroke-width:12.64811897;stroke-miterlimit:4;stroke-dasharray:none;stroke-opacity:1" />
          <g
             id="g4177"
             style="fill:#919191;fill-opacity:1;stroke:#e2e2e2;stroke-width:12.64811897;stroke-miterlimit:4;stroke-dasharray:none;stroke-opacity:1" />
          <g
             id="g4179"
             style="fill:#919191;fill-opacity:1;stroke:#e2e2e2;stroke-width:12.64811897;stroke-miterlimit:4;stroke-dasharray:none;stroke-opacity:1" />
          <g
             id="g4181"
             style="fill:#919191;fill-opacity:1;stroke:#e2e2e2;stroke-width:12.64811897;stroke-miterlimit:4;stroke-dasharray:none;stroke-opacity:1" />
          <g
             id="g4183"
             style="fill:#919191;fill-opacity:1;stroke:#e2e2e2;stroke-width:12.64811897;stroke-miterlimit:4;stroke-dasharray:none;stroke-opacity:1" />
          <g
             id="g4185"
             style="fill:#919191;fill-opacity:1;stroke:#e2e2e2;stroke-width:12.64811897;stroke-miterlimit:4;stroke-dasharray:none;stroke-opacity:1" />
          <g
             id="g4187"
             style="fill:#919191;fill-opacity:1;stroke:#e2e2e2;stroke-width:12.64811897;stroke-miterlimit:4;stroke-dasharray:none;stroke-opacity:1" />
          <g
             id="g4189"
             style="fill:#919191;fill-opacity:1;stroke:#e2e2e2;stroke-width:12.64811897;stroke-miterlimit:4;stroke-dasharray:none;stroke-opacity:1" />
          <g
             id="g4191"
             style="fill:#919191;fill-opacity:1;stroke:#e2e2e2;stroke-width:12.64811897;stroke-miterlimit:4;stroke-dasharray:none;stroke-opacity:1" />
          <g
             id="g4193"
             style="fill:#919191;fill-opacity:1;stroke:#e2e2e2;stroke-width:12.64811897;stroke-miterlimit:4;stroke-dasharray:none;stroke-opacity:1" />
        </g>
        <text
           xml:space="preserve"
           style="font-style:normal;font-variant:normal;font-weight:bold;font-stretch:normal;font-size:40px;line-height:125%;font-family:'Segoe UI';-inkscape-font-specification:'Segoe UI Bold';text-align:center;letter-spacing:0px;word-spacing:0px;text-anchor:middle;fill:#000000;fill-opacity:1;stroke:none;stroke-width:1px;stroke-linecap:butt;stroke-linejoin:miter;stroke-opacity:1"
           x="961.75781"
           y="433.336"
           id="text4220"
           sodipodi:linespacing="125%"><tspan
             sodipodi:role="line"
             id="tspan4222"
             x="961.75781"
             y="433.336"
             style="font-size:60px;text-align:center;text-anchor:middle;fill:#e2e2e2;fill-opacity:1">GITHUB.COM</tspan><tspan
             sodipodi:role="line"
             x="961.75781"
             y="508.336"
             style="font-size:35px;text-align:center;text-anchor:middle;fill:#e2e2e2;fill-opacity:1"
             id="tspan4225">/SAMKRISTOFF</tspan></text>
        <text
           xml:space="preserve"
           style="font-style:normal;font-weight:normal;font-size:40px;line-height:125%;font-family:sans-serif;letter-spacing:0px;word-spacing:0px;fill:#000000;fill-opacity:1;stroke:none;stroke-width:1px;stroke-linecap:butt;stroke-linejoin:miter;stroke-opacity:1"
           x="1191.5535"
           y="551.22205"
           id="text4550"
           sodipodi:linespacing="125%"><tspan
             sodipodi:role="line"
             id="tspan4552"
             x="1191.5535"
             y="551.22205" /></text>
      </g>
    </g>
    <g
       transform="translate(-960,504)"
       id="g4416">
      <text
         xml:space="preserve"
         style="font-style:normal;font-variant:normal;font-weight:bold;font-stretch:normal;font-size:40px;line-height:125%;font-family:'Segoe UI';-inkscape-font-specification:'Segoe UI Bold';text-align:center;letter-spacing:0px;word-spacing:0px;text-anchor:middle;fill:#000000;fill-opacity:1;stroke:none;stroke-width:1px;stroke-linecap:butt;stroke-linejoin:miter;stroke-opacity:1"
         x="1439.0625"
         y="426.77408"
         id="text4220-3"
         sodipodi:linespacing="125%"><tspan
           sodipodi:role="line"
           id="tspan4222-5"
           x="1439.0625"
           y="426.77408"
           style="font-size:60px;text-align:center;text-anchor:middle;fill:#e2e2e2;fill-opacity:1">TWITTER</tspan><tspan
           sodipodi:role="line"
           x="1439.0625"
           y="501.77408"
           style="font-size:35px;text-align:center;text-anchor:middle;fill:#e2e2e2;fill-opacity:1"
           id="tspan4227">@SAMKRISTOFF</tspan></text>
      <g
         style="fill:#919191;fill-opacity:1;stroke:#e2e2e2;stroke-width:11.97368908;stroke-miterlimit:4;stroke-dasharray:none;stroke-opacity:1"
         transform="matrix(0.58461501,0,0,0.58461514,1257.2533,39.469285)"
         id="g4331">
        <g
           style="fill:#919191;fill-opacity:1;stroke:#e2e2e2;stroke-width:11.97368908;stroke-miterlimit:4;stroke-dasharray:none;stroke-opacity:1"
           id="g4289">
          <g
             style="fill:#919191;fill-opacity:1;stroke:#e2e2e2;stroke-width:11.97368908;stroke-miterlimit:4;stroke-dasharray:none;stroke-opacity:1"
             id="g4291">
            <path
               inkscape:connector-curvature="0"
               style="fill:#919191;fill-opacity:1;stroke:#e2e2e2;stroke-width:11.97368908;stroke-miterlimit:4;stroke-dasharray:none;stroke-opacity:1"
               d="m 612,116.258 c -22.525,9.981 -46.694,16.75 -72.088,19.772 25.929,-15.527 45.777,-40.155 55.184,-69.411 -24.322,14.379 -51.169,24.82 -79.775,30.48 -22.907,-24.437 -55.49,-39.658 -91.63,-39.658 -69.334,0 -125.551,56.217 -125.551,125.513 0,9.828 1.109,19.427 3.251,28.606 -104.326,-5.24 -196.835,-55.223 -258.75,-131.174 -10.823,18.51 -16.98,40.078 -16.98,63.101 0,43.559 22.181,81.993 55.835,104.479 C 60.921,247.278 41.57,241.618 24.629,232.21 l 0,1.568 c 0,60.806 43.291,111.554 100.693,123.104 -10.517,2.83 -21.607,4.398 -33.08,4.398 -8.107,0 -15.947,-0.803 -23.634,-2.333 15.985,49.907 62.336,86.199 117.253,87.194 -42.947,33.654 -97.099,53.655 -155.916,53.655 -10.134,0 -20.116,-0.612 -29.944,-1.721 55.567,35.681 121.536,56.485 192.438,56.485 230.948,0 357.188,-191.291 357.188,-357.188 l -0.421,-16.253 C 573.872,163.526 595.211,141.422 612,116.258 Z"
               id="path4293" />
          </g>
        </g>
        <g
           style="fill:#919191;fill-opacity:1;stroke:#e2e2e2;stroke-width:11.97368908;stroke-miterlimit:4;stroke-dasharray:none;stroke-opacity:1"
           id="g4295" />
        <g
           style="fill:#919191;fill-opacity:1;stroke:#e2e2e2;stroke-width:11.97368908;stroke-miterlimit:4;stroke-dasharray:none;stroke-opacity:1"
           id="g4297" />
        <g
           style="fill:#919191;fill-opacity:1;stroke:#e2e2e2;stroke-width:11.97368908;stroke-miterlimit:4;stroke-dasharray:none;stroke-opacity:1"
           id="g4299" />
        <g
           style="fill:#919191;fill-opacity:1;stroke:#e2e2e2;stroke-width:11.97368908;stroke-miterlimit:4;stroke-dasharray:none;stroke-opacity:1"
           id="g4301" />
        <g
           style="fill:#919191;fill-opacity:1;stroke:#e2e2e2;stroke-width:11.97368908;stroke-miterlimit:4;stroke-dasharray:none;stroke-opacity:1"
           id="g4303" />
        <g
           style="fill:#919191;fill-opacity:1;stroke:#e2e2e2;stroke-width:11.97368908;stroke-miterlimit:4;stroke-dasharray:none;stroke-opacity:1"
           id="g4305" />
        <g
           style="fill:#919191;fill-opacity:1;stroke:#e2e2e2;stroke-width:11.97368908;stroke-miterlimit:4;stroke-dasharray:none;stroke-opacity:1"
           id="g4307" />
        <g
           style="fill:#919191;fill-opacity:1;stroke:#e2e2e2;stroke-width:11.97368908;stroke-miterlimit:4;stroke-dasharray:none;stroke-opacity:1"
           id="g4309" />
        <g
           style="fill:#919191;fill-opacity:1;stroke:#e2e2e2;stroke-width:11.97368908;stroke-miterlimit:4;stroke-dasharray:none;stroke-opacity:1"
           id="g4311" />
        <g
           style="fill:#919191;fill-opacity:1;stroke:#e2e2e2;stroke-width:11.97368908;stroke-miterlimit:4;stroke-dasharray:none;stroke-opacity:1"
           id="g4313" />
        <g
           style="fill:#919191;fill-opacity:1;stroke:#e2e2e2;stroke-width:11.97368908;stroke-miterlimit:4;stroke-dasharray:none;stroke-opacity:1"
           id="g4315" />
        <g
           style="fill:#919191;fill-opacity:1;stroke:#e2e2e2;stroke-width:11.97368908;stroke-miterlimit:4;stroke-dasharray:none;stroke-opacity:1"
           id="g4317" />
        <g
           style="fill:#919191;fill-opacity:1;stroke:#e2e2e2;stroke-width:11.97368908;stroke-miterlimit:4;stroke-dasharray:none;stroke-opacity:1"
           id="g4319" />
        <g
           style="fill:#919191;fill-opacity:1;stroke:#e2e2e2;stroke-width:11.97368908;stroke-miterlimit:4;stroke-dasharray:none;stroke-opacity:1"
           id="g4321" />
        <g
           style="fill:#919191;fill-opacity:1;stroke:#e2e2e2;stroke-width:11.97368908;stroke-miterlimit:4;stroke-dasharray:none;stroke-opacity:1"
           id="g4323" />
      </g>
    </g>
    <g
       id="g4641"
       transform="translate(480,-59.999996)">
      <text
         sodipodi:linespacing="125%"
         id="text4220-1"
         y="990.44788"
         x="960.0293"
         style="font-style:normal;font-variant:normal;font-weight:bold;font-stretch:normal;font-size:40px;line-height:125%;font-family:'Segoe UI';-inkscape-font-specification:'Segoe UI Bold';text-align:center;letter-spacing:0px;word-spacing:0px;text-anchor:middle;fill:#000000;fill-opacity:1;stroke:none;stroke-width:1px;stroke-linecap:butt;stroke-linejoin:miter;stroke-opacity:1"
         xml:space="preserve"><tspan
           style="font-size:60px;text-align:center;text-anchor:middle;fill:#e2e2e2;fill-opacity:1"
           y="990.44788"
           x="960.0293"
           id="tspan4222-6"
           sodipodi:role="line">LINKEDIN.COM</tspan><tspan
           style="font-size:35px;text-align:center;text-anchor:middle;fill:#e2e2e2;fill-opacity:1"
           y="1045.1652"
           x="960.0293"
           sodipodi:role="line"
           id="tspan4229">/IN/SAMKRISTOFF</tspan></text>
      <g
         id="g4512"
         transform="matrix(0.48576088,0,0,0.48576088,819.38388,641.74569)"
         style="fill:#919191;fill-opacity:1;stroke:#e2e2e2;stroke-width:14.41038227;stroke-miterlimit:4;stroke-dasharray:none;stroke-opacity:1">
        <g
           id="g4470"
           style="fill:#919191;fill-opacity:1;stroke:#e2e2e2;stroke-width:14.41038227;stroke-miterlimit:4;stroke-dasharray:none;stroke-opacity:1">
          <g
             id="g4472"
             style="fill:#919191;fill-opacity:1;stroke:#e2e2e2;stroke-width:14.41038227;stroke-miterlimit:4;stroke-dasharray:none;stroke-opacity:1">
            <path
               id="path4474"
               d="m 484.093,342.107 c 0,-19.176 -2.449,-35.902 -7.344,-50.184 -4.896,-14.28 -11.631,-26.112 -20.197,-35.496 -8.568,-9.384 -18.666,-16.32 -30.293,-20.808 -11.629,-4.488 -24.379,-6.732 -38.25,-6.732 -11.02,0 -20.605,1.326 -28.768,3.978 -8.156,2.652 -15.195,6.12 -21.111,10.404 -5.916,4.284 -10.914,8.874 -14.994,13.77 -4.08,4.896 -7.547,9.384 -10.404,13.464 l 0,-35.496 -83.231,0 c 0.408,6.936 0.612,20.4 0.612,40.392 l 0,75.891 c 0,0 -0.204,45.084 -0.612,135.252 l 83.231,0 0,-140.763 c 0,-3.672 0.205,-7.238 0.613,-10.709 0.408,-3.469 1.223,-6.631 2.447,-9.484 3.264,-7.346 8.262,-14.279 14.992,-20.811 6.732,-6.525 16.016,-9.791 27.848,-9.791 15.096,0 25.908,5.201 32.436,15.605 6.529,10.402 9.793,24.174 9.793,41.311 l 0,134.641 83.232,0 0,-144.434 0,0 z M 141.372,200.736 c 14.688,0 26.316,-4.284 34.884,-12.852 8.568,-8.568 12.648,-18.768 12.24,-30.6 0,-12.24 -4.182,-22.542 -12.546,-30.906 -8.364,-8.364 -19.686,-12.546 -33.966,-12.546 -14.28,0 -25.704,4.182 -34.272,12.546 -8.568,8.364 -12.852,18.666 -12.852,30.906 0,11.832 4.08,22.032 12.24,30.6 8.16,8.568 19.38,12.852 33.66,12.852 l 0.612,0 0,0 z m 41.616,34.272 -83.232,0 0,251.533 83.232,0 0,-251.533 z M 561.815,0 c 4.08,0 7.549,1.326 10.404,3.978 2.854,2.652 4.285,6.018 4.285,10.098 l 0,550.801 c 0,4.08 -1.432,7.443 -4.285,10.098 -2.855,2.652 -6.324,3.977 -10.404,3.977 l -544.679,0 c -4.08,0 -7.548,-1.322 -10.404,-3.977 -2.856,-2.655 -4.284,-6.018 -4.284,-10.098 l 0,-550.801 C 2.448,9.996 3.876,6.63 6.732,3.978 9.588,1.326 13.056,0 17.136,0 l 544.679,0 0,0 z"
               style="fill:#919191;fill-opacity:1;stroke:#e2e2e2;stroke-width:14.41038227;stroke-miterlimit:4;stroke-dasharray:none;stroke-opacity:1"
               inkscape:connector-curvature="0" />
          </g>
        </g>
        <g
           id="g4476"
           style="fill:#919191;fill-opacity:1;stroke:#e2e2e2;stroke-width:14.41038227;stroke-miterlimit:4;stroke-dasharray:none;stroke-opacity:1" />
        <g
           id="g4478"
           style="fill:#919191;fill-opacity:1;stroke:#e2e2e2;stroke-width:14.41038227;stroke-miterlimit:4;stroke-dasharray:none;stroke-opacity:1" />
        <g
           id="g4480"
           style="fill:#919191;fill-opacity:1;stroke:#e2e2e2;stroke-width:14.41038227;stroke-miterlimit:4;stroke-dasharray:none;stroke-opacity:1" />
        <g
           id="g4482"
           style="fill:#919191;fill-opacity:1;stroke:#e2e2e2;stroke-width:14.41038227;stroke-miterlimit:4;stroke-dasharray:none;stroke-opacity:1" />
        <g
           id="g4484"
           style="fill:#919191;fill-opacity:1;stroke:#e2e2e2;stroke-width:14.41038227;stroke-miterlimit:4;stroke-dasharray:none;stroke-opacity:1" />
        <g
           id="g4486"
           style="fill:#919191;fill-opacity:1;stroke:#e2e2e2;stroke-width:14.41038227;stroke-miterlimit:4;stroke-dasharray:none;stroke-opacity:1" />
        <g
           id="g4488"
           style="fill:#919191;fill-opacity:1;stroke:#e2e2e2;stroke-width:14.41038227;stroke-miterlimit:4;stroke-dasharray:none;stroke-opacity:1" />
        <g
           id="g4490"
           style="fill:#919191;fill-opacity:1;stroke:#e2e2e2;stroke-width:14.41038227;stroke-miterlimit:4;stroke-dasharray:none;stroke-opacity:1" />
        <g
           id="g4492"
           style="fill:#919191;fill-opacity:1;stroke:#e2e2e2;stroke-width:14.41038227;stroke-miterlimit:4;stroke-dasharray:none;stroke-opacity:1" />
        <g
           id="g4494"
           style="fill:#919191;fill-opacity:1;stroke:#e2e2e2;stroke-width:14.41038227;stroke-miterlimit:4;stroke-dasharray:none;stroke-opacity:1" />
        <g
           id="g4496"
           style="fill:#919191;fill-opacity:1;stroke:#e2e2e2;stroke-width:14.41038227;stroke-miterlimit:4;stroke-dasharray:none;stroke-opacity:1" />
        <g
           id="g4498"
           style="fill:#919191;fill-opacity:1;stroke:#e2e2e2;stroke-width:14.41038227;stroke-miterlimit:4;stroke-dasharray:none;stroke-opacity:1" />
        <g
           id="g4500"
           style="fill:#919191;fill-opacity:1;stroke:#e2e2e2;stroke-width:14.41038227;stroke-miterlimit:4;stroke-dasharray:none;stroke-opacity:1" />
        <g
           id="g4502"
           style="fill:#919191;fill-opacity:1;stroke:#e2e2e2;stroke-width:14.41038227;stroke-miterlimit:4;stroke-dasharray:none;stroke-opacity:1" />
        <g
           id="g4504"
           style="fill:#919191;fill-opacity:1;stroke:#e2e2e2;stroke-width:14.41038227;stroke-miterlimit:4;stroke-dasharray:none;stroke-opacity:1" />
      </g>
    </g>
  </g>
</svg>
